<?xml version="1.0" encoding="UTF-8"?>
<svg xmlns="http://www.w3.org/2000/svg" xmlns:xlink="http://www.w3.org/1999/xlink" width="20pt" height="26pt" viewBox="0 0 20 26" version="1.1">
<g id="surface1">
<path style=" stroke:none;fill-rule:evenodd;fill:rgb(60.392157%,57.254902%,45.098039%);fill-opacity:1;" d="M 12 6.792969 C 12.027344 6.8125 12.027344 6.816406 12 6.835938 C 11.984375 6.84375 11.976562 6.855469 11.988281 6.855469 C 11.996094 6.855469 11.992188 6.867188 11.980469 6.882812 C 11.96875 6.898438 11.964844 6.921875 11.972656 6.933594 C 11.980469 6.949219 11.976562 6.953125 11.964844 6.945312 C 11.949219 6.9375 11.941406 6.9375 11.941406 6.949219 C 11.941406 6.96875 11.992188 6.996094 12.007812 6.988281 C 12.011719 6.984375 12.027344 6.992188 12.042969 7.007812 C 12.097656 7.050781 12.179688 7 12.179688 6.921875 C 12.179688 6.882812 12.171875 6.855469 12.160156 6.855469 C 12.148438 6.855469 12.144531 6.839844 12.152344 6.824219 C 12.160156 6.804688 12.148438 6.796875 12.105469 6.796875 C 12.070312 6.796875 12.027344 6.789062 12.007812 6.785156 C 11.976562 6.773438 11.976562 6.777344 12 6.792969 M 6.558594 7.011719 C 6.511719 7.019531 6.476562 7.027344 6.488281 7.027344 C 6.5 7.03125 6.492188 7.042969 6.46875 7.058594 C 6.449219 7.074219 6.425781 7.082031 6.417969 7.078125 C 6.410156 7.074219 6.398438 7.078125 6.390625 7.089844 C 6.382812 7.101562 6.386719 7.109375 6.394531 7.109375 C 6.441406 7.109375 6.390625 7.277344 6.328125 7.339844 C 6.261719 7.402344 6.222656 7.621094 6.277344 7.621094 C 6.285156 7.621094 6.316406 7.664062 6.34375 7.710938 L 6.390625 7.796875 L 6.324219 7.863281 C 6.1875 8.003906 6.183594 8.121094 6.3125 8.160156 C 6.40625 8.191406 6.464844 8.300781 6.492188 8.5 C 6.507812 8.632812 6.519531 8.667969 6.542969 8.667969 C 6.617188 8.667969 6.703125 8.738281 6.753906 8.835938 C 6.796875 8.921875 6.820312 8.953125 6.882812 8.976562 C 6.941406 9 6.96875 9.027344 7.015625 9.117188 C 7.050781 9.183594 7.089844 9.230469 7.113281 9.234375 C 7.179688 9.246094 7.277344 9.335938 7.296875 9.398438 C 7.3125 9.464844 7.316406 9.464844 7.445312 9.523438 C 7.507812 9.546875 7.53125 9.574219 7.5625 9.648438 C 7.597656 9.726562 7.621094 9.746094 7.703125 9.78125 C 7.78125 9.816406 7.808594 9.84375 7.84375 9.917969 C 7.882812 9.996094 7.90625 10.015625 7.984375 10.046875 C 8.085938 10.085938 8.171875 10.164062 8.203125 10.238281 C 8.210938 10.261719 8.234375 10.28125 8.257812 10.28125 C 8.304688 10.28125 8.457031 10.40625 8.488281 10.464844 C 8.507812 10.503906 8.664062 10.597656 8.710938 10.597656 C 8.773438 10.597656 8.898438 10.679688 8.925781 10.738281 C 8.972656 10.832031 9.023438 10.886719 9.082031 10.902344 C 9.136719 10.917969 9.21875 10.988281 9.21875 11.019531 C 9.21875 11.0625 9.324219 11.1875 9.355469 11.1875 C 9.445312 11.1875 9.519531 11.324219 9.539062 11.511719 L 9.550781 11.648438 L 9.640625 11.691406 C 9.777344 11.757812 9.792969 11.789062 9.808594 12.09375 C 9.824219 12.480469 9.816406 12.457031 9.992188 12.488281 C 10.203125 12.519531 10.199219 12.527344 10.199219 12.183594 C 10.199219 11.835938 10.222656 11.757812 10.359375 11.636719 C 10.414062 11.589844 10.460938 11.539062 10.460938 11.523438 C 10.460938 11.503906 10.515625 11.433594 10.585938 11.363281 C 10.667969 11.285156 10.722656 11.207031 10.738281 11.160156 C 10.800781 10.976562 10.828125 10.941406 10.976562 10.878906 C 11.113281 10.824219 11.222656 10.738281 11.53125 10.449219 C 11.609375 10.375 11.671875 10.335938 11.75 10.3125 C 11.828125 10.289062 11.859375 10.269531 11.859375 10.242188 C 11.859375 10.1875 11.921875 10.125 12.050781 10.058594 C 12.140625 10.011719 12.171875 9.984375 12.175781 9.945312 C 12.1875 9.878906 12.230469 9.832031 12.34375 9.777344 C 12.417969 9.742188 12.441406 9.71875 12.441406 9.683594 C 12.441406 9.628906 12.550781 9.519531 12.625 9.503906 C 12.664062 9.492188 12.691406 9.46875 12.710938 9.417969 C 12.753906 9.320312 12.835938 9.238281 12.894531 9.238281 C 12.929688 9.238281 12.949219 9.21875 12.972656 9.164062 C 13.023438 9.042969 13.074219 8.984375 13.144531 8.972656 C 13.222656 8.953125 13.261719 8.90625 13.238281 8.859375 C 13.226562 8.84375 13.21875 8.808594 13.21875 8.785156 C 13.21875 8.761719 13.203125 8.742188 13.167969 8.734375 C 13.140625 8.726562 13.105469 8.699219 13.089844 8.667969 C 13.027344 8.558594 12.929688 8.46875 12.867188 8.46875 C 12.835938 8.46875 12.777344 8.460938 12.738281 8.449219 C 12.621094 8.417969 12.570312 8.449219 12.503906 8.59375 C 12.375 8.867188 11.988281 8.828125 11.890625 8.535156 C 11.867188 8.457031 11.757812 8.460938 11.566406 8.554688 C 11.539062 8.566406 11.472656 8.570312 11.402344 8.5625 C 11.285156 8.550781 11.140625 8.574219 11.140625 8.609375 C 11.140625 8.710938 10.929688 8.6875 10.859375 8.574219 C 10.828125 8.523438 10.808594 8.507812 10.761719 8.507812 C 10.671875 8.507812 10.417969 8.46875 10.367188 8.445312 C 10.320312 8.425781 10.292969 8.363281 10.226562 8.164062 C 10.164062 7.964844 9.902344 7.898438 9.613281 8.007812 C 9.59375 8.015625 9.539062 7.976562 9.449219 7.890625 C 9.375 7.820312 9.304688 7.761719 9.292969 7.761719 C 9.28125 7.757812 9.21875 7.734375 9.15625 7.703125 C 9.039062 7.648438 9.039062 7.648438 8.761719 7.65625 L 8.484375 7.667969 L 8.375 7.605469 C 8.261719 7.542969 8.21875 7.480469 8.21875 7.375 C 8.21875 7.347656 8.203125 7.320312 8.183594 7.308594 C 8.152344 7.292969 8.144531 7.265625 8.144531 7.1875 C 8.140625 7.132812 8.136719 7.082031 8.128906 7.070312 C 8.125 7.0625 8.132812 7.050781 8.144531 7.042969 C 8.160156 7.039062 8.152344 7.035156 8.128906 7.042969 C 8.105469 7.046875 8.074219 7.042969 8.066406 7.027344 C 8.039062 7 6.722656 6.984375 6.558594 7.011719 M 12.589844 7.410156 C 12.566406 7.417969 12.507812 7.472656 12.460938 7.527344 C 12.359375 7.632812 12.355469 7.632812 11.921875 7.675781 C 11.804688 7.6875 11.78125 7.695312 11.710938 7.765625 C 11.589844 7.875 11.445312 7.9375 11.207031 7.972656 C 10.941406 8.011719 10.917969 8.03125 10.921875 8.210938 C 10.921875 8.457031 10.972656 8.503906 11.058594 8.328125 C 11.121094 8.199219 11.164062 8.1875 11.421875 8.210938 C 11.523438 8.222656 11.660156 8.238281 11.71875 8.242188 C 11.78125 8.25 11.851562 8.257812 11.878906 8.261719 C 11.90625 8.265625 12.015625 8.273438 12.121094 8.28125 C 12.222656 8.289062 12.328125 8.296875 12.347656 8.300781 C 12.367188 8.300781 12.46875 8.292969 12.574219 8.28125 C 12.808594 8.25 12.902344 8.238281 13.101562 8.222656 C 13.253906 8.210938 13.359375 8.152344 13.359375 8.078125 C 13.359375 8.0625 13.417969 7.992188 13.492188 7.921875 L 13.625 7.789062 L 13.613281 7.65625 C 13.601562 7.476562 13.566406 7.4375 13.378906 7.410156 C 13.207031 7.378906 12.644531 7.378906 12.589844 7.410156 M 10.398438 7.785156 C 10.367188 7.808594 10.367188 7.8125 10.398438 7.835938 C 10.441406 7.859375 10.484375 7.832031 10.464844 7.789062 C 10.453125 7.753906 10.441406 7.753906 10.398438 7.785156 M 9.828125 14.605469 C 9.796875 14.625 9.789062 14.648438 9.796875 14.6875 C 9.8125 14.785156 9.832031 14.792969 10.019531 14.792969 L 10.191406 14.792969 L 10.226562 14.722656 C 10.269531 14.632812 10.269531 14.640625 10.199219 14.605469 C 10.125 14.566406 9.882812 14.566406 9.828125 14.605469 M 9.761719 15.054688 C 9.660156 15.085938 9.566406 15.574219 9.636719 15.679688 C 9.679688 15.738281 10.351562 15.734375 10.382812 15.675781 C 10.417969 15.609375 10.414062 15.351562 10.371094 15.140625 C 10.347656 15.035156 9.980469 14.980469 9.761719 15.054688 M 9.675781 15.765625 C 9.625 15.804688 9.617188 15.945312 9.652344 16.160156 C 9.6875 16.363281 9.730469 16.417969 9.859375 16.441406 C 9.90625 16.445312 9.941406 16.460938 9.941406 16.46875 C 9.941406 16.480469 9.953125 16.488281 9.96875 16.488281 C 10.015625 16.488281 10.046875 16.558594 10.019531 16.605469 C 10.007812 16.625 10.003906 16.644531 10.011719 16.644531 C 10.019531 16.644531 10.011719 16.65625 9.988281 16.671875 C 9.96875 16.6875 9.914062 16.703125 9.871094 16.703125 C 9.65625 16.707031 9.59375 16.761719 9.652344 16.90625 C 9.671875 16.964844 9.679688 17.0625 9.679688 17.339844 C 9.675781 17.789062 9.667969 17.757812 9.742188 17.785156 C 9.835938 17.824219 10.28125 17.792969 10.328125 17.746094 C 10.34375 17.734375 10.351562 17.574219 10.351562 17.355469 C 10.351562 16.921875 10.339844 16.890625 10.210938 16.871094 C 10.074219 16.847656 10.058594 16.839844 10.058594 16.789062 C 10.058594 16.75 10.070312 16.742188 10.113281 16.742188 C 10.269531 16.738281 10.316406 16.726562 10.363281 16.679688 C 10.40625 16.636719 10.429688 16.527344 10.394531 16.527344 C 10.386719 16.527344 10.378906 16.507812 10.378906 16.488281 C 10.378906 16.46875 10.375 16.445312 10.367188 16.4375 C 10.359375 16.433594 10.351562 16.40625 10.351562 16.382812 C 10.347656 16.359375 10.339844 16.316406 10.332031 16.292969 C 10.320312 16.257812 10.324219 16.238281 10.347656 16.226562 C 10.414062 16.1875 10.425781 15.851562 10.363281 15.785156 C 10.308594 15.730469 9.746094 15.714844 9.675781 15.765625 M 9.640625 18.363281 C 9.640625 18.382812 9.632812 18.398438 9.621094 18.398438 C 9.589844 18.398438 9.613281 18.722656 9.648438 18.785156 C 9.769531 19.011719 9.71875 19.136719 9.5 19.164062 C 9.417969 19.175781 9.40625 19.183594 9.386719 19.242188 C 9.363281 19.316406 9.328125 19.34375 9.269531 19.332031 C 9.195312 19.3125 8.804688 19.308594 8.777344 19.324219 C 8.753906 19.339844 8.753906 19.34375 8.777344 19.34375 C 8.800781 19.34375 8.800781 19.347656 8.78125 19.371094 C 8.761719 19.394531 8.761719 19.402344 8.777344 19.402344 C 8.792969 19.402344 8.796875 19.410156 8.785156 19.425781 C 8.753906 19.480469 8.761719 19.578125 8.800781 19.578125 C 8.90625 19.578125 8.941406 19.902344 8.839844 19.964844 C 8.796875 19.988281 8.628906 19.972656 8.539062 19.9375 C 8.339844 19.851562 7.863281 19.800781 7.859375 19.863281 C 7.859375 19.875 7.855469 19.902344 7.851562 19.921875 C 7.847656 19.941406 7.839844 20 7.832031 20.054688 C 7.824219 20.160156 7.777344 20.230469 7.71875 20.230469 C 7.699219 20.230469 7.675781 20.234375 7.671875 20.246094 C 7.65625 20.269531 7.394531 20.21875 7.261719 20.167969 C 7.128906 20.117188 7 20.097656 7 20.128906 C 7 20.140625 6.988281 20.144531 6.96875 20.136719 C 6.941406 20.128906 6.925781 20.234375 6.9375 20.3125 C 6.949219 20.367188 6.886719 20.460938 6.824219 20.496094 C 6.765625 20.527344 6.742188 20.554688 6.71875 20.628906 C 6.6875 20.71875 6.648438 20.769531 6.527344 20.875 L 6.472656 20.925781 L 6.519531 20.960938 C 6.542969 20.980469 6.585938 20.996094 6.613281 20.996094 C 6.722656 20.996094 6.785156 21.121094 6.78125 21.332031 C 6.773438 21.53125 6.773438 21.527344 6.816406 21.527344 C 6.875 21.527344 6.988281 21.476562 7.027344 21.433594 C 7.078125 21.378906 7.113281 21.378906 7.164062 21.4375 C 7.285156 21.558594 7.699219 21.5625 7.699219 21.441406 C 7.699219 21.417969 7.730469 21.378906 7.785156 21.339844 L 7.871094 21.28125 L 10.542969 21.277344 L 13.21875 21.273438 L 13.269531 21.179688 C 13.328125 21.0625 13.390625 20.996094 13.4375 20.996094 C 13.554688 20.996094 13.542969 20.84375 13.425781 20.839844 C 13.390625 20.839844 13.304688 20.742188 13.257812 20.644531 C 13.234375 20.597656 13.199219 20.554688 13.183594 20.546875 C 13.089844 20.507812 13 20.429688 12.988281 20.375 C 12.976562 20.324219 12.972656 20.289062 12.960938 20.15625 L 12.960938 20.109375 L 12.886719 20.15625 C 12.839844 20.183594 12.761719 20.207031 12.691406 20.214844 C 12.625 20.222656 12.554688 20.230469 12.539062 20.234375 C 12.386719 20.269531 12.363281 20.269531 12.308594 20.242188 C 12.207031 20.191406 12.171875 20.136719 12.171875 20.027344 C 12.167969 19.863281 12.152344 19.851562 11.953125 19.84375 C 11.855469 19.839844 11.78125 19.847656 11.78125 19.855469 C 11.78125 19.867188 11.773438 19.875 11.765625 19.871094 C 11.757812 19.871094 11.746094 19.871094 11.738281 19.875 C 11.726562 19.878906 11.679688 19.890625 11.601562 19.910156 C 11.507812 19.929688 11.449219 19.867188 11.441406 19.726562 C 11.4375 19.605469 11.414062 19.578125 11.328125 19.578125 C 11.261719 19.578125 11.261719 19.578125 11.261719 19.5 C 11.261719 19.367188 11.234375 19.328125 11.128906 19.3125 C 11.042969 19.300781 10.992188 19.308594 10.796875 19.367188 C 10.679688 19.40625 10.585938 19.34375 10.574219 19.222656 C 10.566406 19.136719 10.523438 19.074219 10.460938 19.0625 C 10.40625 19.054688 10.390625 19.015625 10.410156 18.9375 C 10.417969 18.90625 10.429688 18.894531 10.449219 18.902344 C 10.464844 18.910156 10.480469 18.902344 10.480469 18.890625 C 10.480469 18.875 10.496094 18.882812 10.515625 18.902344 C 10.546875 18.933594 10.550781 18.933594 10.554688 18.902344 C 10.558594 18.882812 10.570312 18.875 10.582031 18.878906 C 10.59375 18.886719 10.605469 18.875 10.613281 18.855469 C 10.621094 18.835938 10.640625 18.808594 10.660156 18.789062 C 10.703125 18.753906 10.703125 18.691406 10.660156 18.695312 C 10.644531 18.695312 10.621094 18.695312 10.609375 18.691406 C 10.597656 18.691406 10.582031 18.6875 10.570312 18.683594 C 10.558594 18.679688 10.515625 18.675781 10.476562 18.675781 C 10.394531 18.671875 10.320312 18.570312 10.320312 18.460938 C 10.320312 18.359375 9.746094 18.269531 9.6875 18.363281 C 9.679688 18.375 9.667969 18.371094 9.65625 18.355469 C 9.644531 18.332031 9.640625 18.335938 9.640625 18.363281 "/>
<path style=" stroke:none;fill-rule:evenodd;fill:rgb(45.490196%,42.352941%,39.215686%);fill-opacity:1;" d="M 11.910156 6.738281 C 11.886719 6.746094 11.878906 6.753906 11.886719 6.753906 C 11.898438 6.753906 11.894531 6.769531 11.878906 6.789062 C 11.863281 6.804688 11.847656 6.867188 11.839844 6.921875 C 11.832031 7.015625 11.828125 7.023438 11.78125 7.015625 C 11.402344 6.980469 11.386719 6.984375 11.375 7.152344 C 11.363281 7.257812 11.351562 7.296875 11.3125 7.335938 L 11.265625 7.382812 L 11.148438 7.34375 C 11.082031 7.324219 11.015625 7.296875 10.992188 7.285156 C 10.890625 7.230469 10.5625 7.277344 10.558594 7.351562 C 10.558594 7.367188 10.554688 7.410156 10.550781 7.457031 C 10.542969 7.558594 10.546875 7.558594 10.503906 7.570312 C 10.386719 7.613281 10.339844 7.621094 10.222656 7.621094 C 10.082031 7.625 10.074219 7.625 9.945312 7.582031 C 9.871094 7.558594 9.84375 7.5625 9.761719 7.585938 C 9.464844 7.679688 9.160156 7.609375 9.160156 7.449219 C 9.160156 7.285156 9.148438 7.273438 9.042969 7.28125 C 8.816406 7.296875 8.714844 7.308594 8.683594 7.324219 C 8.5 7.421875 8.402344 7.367188 8.378906 7.15625 C 8.363281 7 8.375 7.011719 8.1875 6.996094 C 8.042969 6.988281 8.03125 6.988281 8.058594 7.019531 C 8.074219 7.039062 8.101562 7.046875 8.128906 7.042969 C 8.152344 7.035156 8.160156 7.039062 8.144531 7.042969 C 8.132812 7.050781 8.125 7.0625 8.128906 7.070312 C 8.136719 7.082031 8.140625 7.132812 8.144531 7.1875 C 8.144531 7.265625 8.152344 7.292969 8.183594 7.308594 C 8.203125 7.320312 8.21875 7.347656 8.21875 7.375 C 8.21875 7.480469 8.261719 7.542969 8.375 7.605469 L 8.484375 7.667969 L 8.761719 7.65625 C 9.039062 7.648438 9.039062 7.648438 9.15625 7.703125 C 9.21875 7.734375 9.28125 7.757812 9.292969 7.761719 C 9.304688 7.761719 9.375 7.820312 9.449219 7.890625 C 9.539062 7.976562 9.59375 8.015625 9.613281 8.007812 C 9.902344 7.898438 10.164062 7.964844 10.226562 8.164062 C 10.292969 8.363281 10.320312 8.425781 10.367188 8.445312 C 10.417969 8.46875 10.671875 8.507812 10.761719 8.507812 C 10.808594 8.507812 10.828125 8.523438 10.859375 8.574219 C 10.929688 8.6875 11.140625 8.710938 11.140625 8.609375 C 11.140625 8.574219 11.285156 8.550781 11.402344 8.5625 C 11.472656 8.570312 11.539062 8.566406 11.566406 8.554688 C 11.757812 8.460938 11.867188 8.457031 11.890625 8.535156 C 11.945312 8.699219 12.042969 8.765625 12.230469 8.765625 C 12.402344 8.765625 12.433594 8.746094 12.503906 8.59375 C 12.570312 8.449219 12.621094 8.417969 12.738281 8.449219 C 12.777344 8.460938 12.835938 8.46875 12.867188 8.46875 C 12.929688 8.46875 13.027344 8.558594 13.089844 8.667969 C 13.105469 8.699219 13.140625 8.726562 13.167969 8.734375 C 13.203125 8.742188 13.21875 8.761719 13.21875 8.785156 C 13.21875 8.808594 13.226562 8.84375 13.238281 8.859375 C 13.261719 8.90625 13.222656 8.953125 13.144531 8.972656 C 13.074219 8.984375 13.023438 9.042969 12.972656 9.164062 C 12.949219 9.21875 12.929688 9.238281 12.894531 9.238281 C 12.835938 9.238281 12.753906 9.320312 12.710938 9.417969 C 12.691406 9.46875 12.664062 9.492188 12.625 9.503906 C 12.550781 9.519531 12.441406 9.628906 12.441406 9.683594 C 12.441406 9.71875 12.417969 9.742188 12.34375 9.777344 C 12.230469 9.832031 12.1875 9.878906 12.175781 9.945312 C 12.171875 9.984375 12.140625 10.011719 12.050781 10.058594 C 11.921875 10.125 11.859375 10.1875 11.859375 10.242188 C 11.859375 10.269531 11.828125 10.289062 11.75 10.3125 C 11.671875 10.335938 11.609375 10.375 11.53125 10.449219 C 11.222656 10.738281 11.113281 10.824219 10.976562 10.878906 C 10.828125 10.941406 10.800781 10.976562 10.738281 11.160156 C 10.722656 11.207031 10.667969 11.285156 10.585938 11.363281 C 10.515625 11.433594 10.460938 11.503906 10.460938 11.523438 C 10.460938 11.539062 10.414062 11.589844 10.359375 11.636719 C 10.222656 11.757812 10.199219 11.835938 10.199219 12.183594 C 10.199219 12.527344 10.203125 12.519531 9.992188 12.488281 C 9.816406 12.457031 9.824219 12.480469 9.808594 12.09375 C 9.792969 11.789062 9.777344 11.757812 9.640625 11.691406 L 9.550781 11.648438 L 9.539062 11.511719 C 9.519531 11.324219 9.445312 11.1875 9.355469 11.1875 C 9.324219 11.1875 9.21875 11.0625 9.21875 11.019531 C 9.21875 10.988281 9.136719 10.917969 9.082031 10.902344 C 9.023438 10.886719 8.972656 10.832031 8.925781 10.738281 C 8.898438 10.679688 8.773438 10.597656 8.710938 10.597656 C 8.664062 10.597656 8.507812 10.503906 8.488281 10.464844 C 8.457031 10.40625 8.304688 10.28125 8.257812 10.28125 C 8.234375 10.28125 8.210938 10.261719 8.203125 10.238281 C 8.171875 10.164062 8.085938 10.085938 7.984375 10.046875 C 7.90625 10.015625 7.882812 9.996094 7.84375 9.917969 C 7.808594 9.84375 7.78125 9.816406 7.703125 9.78125 C 7.621094 9.746094 7.597656 9.726562 7.5625 9.648438 C 7.53125 9.574219 7.507812 9.546875 7.445312 9.523438 C 7.316406 9.464844 7.3125 9.464844 7.296875 9.398438 C 7.277344 9.335938 7.179688 9.246094 7.113281 9.234375 C 7.089844 9.230469 7.050781 9.183594 7.015625 9.117188 C 6.96875 9.027344 6.941406 9 6.882812 8.976562 C 6.820312 8.953125 6.796875 8.921875 6.753906 8.835938 C 6.703125 8.738281 6.617188 8.667969 6.542969 8.667969 C 6.519531 8.667969 6.507812 8.632812 6.492188 8.5 C 6.464844 8.300781 6.40625 8.191406 6.3125 8.160156 C 6.183594 8.121094 6.1875 8.003906 6.324219 7.863281 L 6.390625 7.796875 L 6.34375 7.710938 C 6.316406 7.664062 6.285156 7.621094 6.277344 7.621094 C 6.222656 7.621094 6.261719 7.402344 6.328125 7.339844 C 6.390625 7.277344 6.441406 7.109375 6.394531 7.109375 C 6.386719 7.109375 6.382812 7.101562 6.390625 7.089844 C 6.398438 7.078125 6.410156 7.074219 6.417969 7.078125 C 6.425781 7.082031 6.449219 7.074219 6.46875 7.058594 C 6.492188 7.042969 6.5 7.03125 6.488281 7.027344 C 6.476562 7.027344 6.511719 7.019531 6.558594 7.011719 C 6.632812 7 6.609375 6.996094 6.457031 6.996094 C 6.167969 6.992188 6.058594 7.230469 6.148438 7.65625 C 6.175781 7.78125 6.175781 7.808594 6.148438 7.878906 C 6.089844 8.042969 6.132812 8.214844 6.230469 8.214844 C 6.300781 8.214844 6.378906 8.34375 6.378906 8.453125 C 6.378906 8.609375 6.402344 8.65625 6.519531 8.738281 C 6.574219 8.777344 6.640625 8.839844 6.664062 8.882812 C 6.691406 8.921875 6.757812 8.992188 6.8125 9.035156 C 6.867188 9.078125 6.925781 9.140625 6.9375 9.171875 C 6.953125 9.203125 7 9.253906 7.042969 9.289062 C 7.144531 9.359375 7.195312 9.410156 7.261719 9.492188 C 7.289062 9.523438 7.335938 9.566406 7.363281 9.582031 C 7.394531 9.601562 7.457031 9.660156 7.5 9.714844 C 7.546875 9.769531 7.617188 9.839844 7.660156 9.871094 C 7.703125 9.902344 7.761719 9.964844 7.792969 10.007812 C 7.824219 10.050781 7.882812 10.105469 7.929688 10.128906 C 8.007812 10.167969 8.121094 10.269531 8.367188 10.515625 C 8.476562 10.625 8.503906 10.640625 8.617188 10.667969 C 8.75 10.699219 8.875 10.777344 8.878906 10.835938 C 8.878906 10.867188 8.941406 10.933594 8.96875 10.933594 C 9.003906 10.933594 9.136719 11.054688 9.148438 11.097656 C 9.152344 11.121094 9.210938 11.179688 9.273438 11.226562 C 9.339844 11.273438 9.394531 11.316406 9.398438 11.320312 C 9.402344 11.324219 9.417969 11.398438 9.433594 11.488281 C 9.460938 11.65625 9.5 11.722656 9.625 11.792969 C 9.691406 11.832031 9.699219 11.863281 9.71875 12.183594 C 9.746094 12.546875 9.769531 12.582031 10.03125 12.601562 L 10.171875 12.609375 L 10.238281 12.535156 C 10.304688 12.460938 10.304688 12.460938 10.292969 12.300781 C 10.273438 11.992188 10.304688 11.847656 10.417969 11.730469 C 10.46875 11.675781 10.546875 11.589844 10.589844 11.539062 C 10.628906 11.484375 10.675781 11.445312 10.683594 11.445312 C 10.734375 11.445312 10.859375 11.207031 10.859375 11.117188 C 10.859375 11.046875 10.96875 10.957031 11.078125 10.941406 C 11.203125 10.921875 11.234375 10.90625 11.371094 10.765625 C 11.59375 10.542969 11.710938 10.441406 11.78125 10.410156 C 11.820312 10.394531 11.894531 10.328125 11.949219 10.265625 C 12.011719 10.195312 12.070312 10.144531 12.101562 10.136719 C 12.140625 10.128906 12.179688 10.089844 12.234375 10.011719 C 12.28125 9.9375 12.332031 9.886719 12.371094 9.871094 C 12.429688 9.847656 12.558594 9.699219 12.558594 9.65625 C 12.558594 9.640625 12.570312 9.632812 12.585938 9.632812 C 12.628906 9.632812 12.796875 9.476562 12.8125 9.425781 C 12.816406 9.402344 12.851562 9.363281 12.886719 9.347656 C 12.921875 9.328125 12.976562 9.28125 13.011719 9.242188 C 13.113281 9.125 13.265625 8.980469 13.292969 8.980469 C 13.371094 8.980469 13.363281 8.847656 13.273438 8.628906 C 13.253906 8.585938 13.332031 8.472656 13.394531 8.445312 C 13.515625 8.394531 13.539062 8.355469 13.539062 8.21875 C 13.539062 8.085938 13.578125 8.003906 13.664062 7.941406 C 13.6875 7.925781 13.730469 7.886719 13.761719 7.859375 L 13.820312 7.800781 L 13.820312 7.53125 C 13.820312 7.34375 13.832031 7.214844 13.851562 7.117188 C 13.917969 6.851562 13.828125 6.695312 13.632812 6.734375 C 13.570312 6.75 13.511719 6.753906 13.5 6.746094 C 13.492188 6.742188 13.476562 6.742188 13.472656 6.753906 C 13.445312 6.796875 12.90625 6.789062 12.777344 6.738281 C 12.65625 6.695312 11.96875 6.714844 12.085938 6.761719 C 12.101562 6.769531 12.097656 6.773438 12.074219 6.773438 C 12.054688 6.773438 12.039062 6.765625 12.039062 6.75 C 12.039062 6.722656 11.96875 6.714844 11.910156 6.738281 M 12.105469 6.796875 C 12.148438 6.796875 12.160156 6.804688 12.152344 6.824219 C 12.144531 6.839844 12.148438 6.855469 12.160156 6.855469 C 12.171875 6.855469 12.179688 6.882812 12.179688 6.921875 C 12.179688 7 12.097656 7.050781 12.042969 7.007812 C 12.027344 6.992188 12.011719 6.984375 12.007812 6.988281 C 11.992188 6.996094 11.941406 6.96875 11.941406 6.949219 C 11.941406 6.9375 11.949219 6.9375 11.964844 6.945312 C 11.976562 6.953125 11.980469 6.949219 11.972656 6.933594 C 11.964844 6.921875 11.96875 6.898438 11.980469 6.882812 C 11.992188 6.867188 11.996094 6.855469 11.988281 6.855469 C 11.976562 6.855469 11.984375 6.84375 12 6.835938 C 12.027344 6.816406 12.027344 6.8125 12 6.792969 C 11.976562 6.777344 11.976562 6.773438 12.007812 6.785156 C 12.027344 6.789062 12.070312 6.796875 12.105469 6.796875 M 7.804688 7.007812 C 7.835938 7.011719 7.878906 7.011719 7.90625 7.007812 C 7.929688 7 7.90625 6.996094 7.851562 6.996094 C 7.796875 7 7.773438 7.003906 7.804688 7.007812 M 13.378906 7.410156 C 13.566406 7.4375 13.601562 7.476562 13.613281 7.65625 L 13.625 7.789062 L 13.492188 7.921875 C 13.417969 7.992188 13.359375 8.0625 13.359375 8.078125 C 13.359375 8.152344 13.253906 8.210938 13.101562 8.222656 C 12.902344 8.238281 12.808594 8.25 12.574219 8.28125 C 12.46875 8.292969 12.367188 8.300781 12.347656 8.300781 C 12.328125 8.296875 12.222656 8.289062 12.121094 8.28125 C 12.015625 8.273438 11.90625 8.265625 11.878906 8.261719 C 11.851562 8.257812 11.78125 8.25 11.71875 8.242188 C 11.660156 8.238281 11.523438 8.222656 11.421875 8.210938 C 11.164062 8.1875 11.121094 8.199219 11.058594 8.328125 C 10.972656 8.503906 10.921875 8.457031 10.921875 8.210938 C 10.917969 8.03125 10.941406 8.011719 11.207031 7.972656 C 11.445312 7.9375 11.589844 7.875 11.710938 7.765625 C 11.78125 7.695312 11.804688 7.6875 11.921875 7.675781 C 12.355469 7.632812 12.359375 7.632812 12.460938 7.527344 C 12.507812 7.472656 12.566406 7.417969 12.589844 7.410156 C 12.644531 7.378906 13.207031 7.378906 13.378906 7.410156 M 10.464844 7.789062 C 10.484375 7.832031 10.441406 7.859375 10.398438 7.835938 C 10.367188 7.8125 10.367188 7.808594 10.398438 7.785156 C 10.441406 7.753906 10.453125 7.753906 10.464844 7.789062 M 9.808594 14.519531 C 9.648438 14.609375 9.632812 14.796875 9.785156 14.851562 C 9.875 14.882812 10.242188 14.878906 10.289062 14.84375 C 10.339844 14.808594 10.363281 14.660156 10.324219 14.601562 C 10.261719 14.507812 9.929688 14.457031 9.808594 14.519531 M 10.199219 14.605469 C 10.269531 14.640625 10.269531 14.632812 10.226562 14.722656 L 10.191406 14.792969 L 10.019531 14.792969 C 9.832031 14.792969 9.8125 14.785156 9.796875 14.6875 C 9.777344 14.582031 10.046875 14.527344 10.199219 14.605469 M 9.695312 14.984375 C 9.625 15.027344 9.621094 15.050781 9.605469 15.34375 C 9.59375 15.609375 9.609375 15.660156 9.628906 15.421875 C 9.660156 15.058594 9.683594 15.03125 10.019531 15.03125 C 10.304688 15.027344 10.347656 15.046875 10.375 15.167969 C 10.390625 15.222656 10.394531 15.273438 10.390625 15.285156 C 10.386719 15.292969 10.390625 15.324219 10.402344 15.355469 C 10.414062 15.398438 10.417969 15.355469 10.414062 15.207031 C 10.410156 15.074219 10.398438 15 10.382812 14.992188 C 10.371094 14.988281 10.363281 14.980469 10.371094 14.96875 C 10.390625 14.933594 9.753906 14.949219 9.695312 14.984375 M 10.402344 15.601562 C 10.402344 15.621094 10.394531 15.652344 10.386719 15.671875 C 10.378906 15.707031 10.378906 15.707031 10.398438 15.671875 C 10.414062 15.652344 10.417969 15.621094 10.414062 15.605469 C 10.40625 15.574219 10.40625 15.574219 10.402344 15.601562 M 9.65625 15.761719 C 9.617188 15.792969 9.59375 15.855469 9.621094 15.855469 C 9.632812 15.855469 9.640625 15.839844 9.640625 15.824219 C 9.640625 15.804688 9.65625 15.78125 9.675781 15.765625 C 9.695312 15.75 9.703125 15.738281 9.699219 15.738281 C 9.691406 15.738281 9.671875 15.75 9.65625 15.761719 M 10.339844 15.761719 C 10.355469 15.777344 10.382812 15.800781 10.398438 15.816406 C 10.421875 15.84375 10.421875 15.839844 10.402344 15.804688 C 10.390625 15.78125 10.363281 15.757812 10.34375 15.75 C 10.316406 15.738281 10.3125 15.742188 10.339844 15.761719 M 10.40625 15.925781 C 10.40625 15.96875 10.410156 15.984375 10.414062 15.960938 C 10.417969 15.933594 10.417969 15.898438 10.414062 15.878906 C 10.410156 15.863281 10.40625 15.882812 10.40625 15.925781 M 9.609375 16.125 C 9.617188 16.265625 9.625 16.402344 9.621094 16.429688 C 9.621094 16.484375 9.671875 16.507812 9.804688 16.507812 C 9.835938 16.507812 9.878906 16.515625 9.902344 16.527344 C 9.976562 16.566406 9.910156 16.605469 9.769531 16.605469 C 9.613281 16.605469 9.597656 16.628906 9.609375 16.875 C 9.613281 16.96875 9.617188 17.222656 9.621094 17.4375 C 9.621094 17.65625 9.628906 17.84375 9.632812 17.859375 C 9.644531 17.882812 9.710938 17.886719 9.992188 17.882812 C 10.382812 17.882812 10.402344 17.875 10.398438 17.75 C 10.398438 17.710938 10.402344 17.445312 10.410156 17.160156 C 10.414062 16.875 10.414062 16.644531 10.40625 16.644531 C 10.398438 16.644531 10.378906 16.664062 10.355469 16.6875 C 10.320312 16.726562 10.269531 16.738281 10.113281 16.742188 C 10.070312 16.742188 10.058594 16.75 10.058594 16.789062 C 10.058594 16.839844 10.074219 16.847656 10.210938 16.871094 C 10.339844 16.890625 10.351562 16.921875 10.351562 17.355469 C 10.351562 17.574219 10.34375 17.734375 10.328125 17.746094 C 10.28125 17.792969 9.835938 17.824219 9.742188 17.785156 C 9.667969 17.757812 9.675781 17.789062 9.679688 17.339844 C 9.679688 17.0625 9.671875 16.964844 9.652344 16.90625 C 9.59375 16.761719 9.65625 16.707031 9.871094 16.703125 C 9.914062 16.703125 9.96875 16.6875 9.988281 16.671875 C 10.011719 16.65625 10.019531 16.644531 10.011719 16.644531 C 10.003906 16.644531 10.007812 16.625 10.019531 16.605469 C 10.046875 16.558594 10.015625 16.488281 9.96875 16.488281 C 9.953125 16.488281 9.941406 16.480469 9.941406 16.46875 C 9.941406 16.460938 9.90625 16.445312 9.859375 16.441406 C 9.714844 16.417969 9.582031 16.128906 9.632812 15.941406 C 9.636719 15.917969 9.632812 15.894531 9.617188 15.886719 C 9.597656 15.875 9.597656 15.925781 9.609375 16.125 M 10.390625 16.113281 C 10.382812 16.167969 10.367188 16.214844 10.347656 16.226562 C 10.324219 16.238281 10.320312 16.257812 10.332031 16.292969 C 10.339844 16.316406 10.347656 16.359375 10.351562 16.382812 C 10.351562 16.40625 10.359375 16.433594 10.367188 16.4375 C 10.375 16.445312 10.378906 16.46875 10.378906 16.488281 C 10.378906 16.507812 10.386719 16.527344 10.398438 16.527344 C 10.40625 16.527344 10.417969 16.410156 10.417969 16.269531 C 10.417969 15.992188 10.414062 15.960938 10.390625 16.113281 M 9.652344 18.257812 C 9.65625 18.261719 9.644531 18.277344 9.628906 18.292969 C 9.597656 18.324219 9.589844 18.398438 9.621094 18.398438 C 9.632812 18.398438 9.640625 18.382812 9.640625 18.363281 C 9.640625 18.335938 9.644531 18.332031 9.65625 18.355469 C 9.667969 18.371094 9.679688 18.375 9.6875 18.363281 C 9.746094 18.269531 10.320312 18.359375 10.320312 18.460938 C 10.320312 18.570312 10.394531 18.671875 10.476562 18.675781 C 10.574219 18.679688 10.585938 18.679688 10.609375 18.695312 C 10.621094 18.703125 10.644531 18.703125 10.660156 18.691406 C 10.691406 18.675781 10.703125 18.59375 10.675781 18.59375 C 10.664062 18.59375 10.664062 18.585938 10.671875 18.574219 C 10.675781 18.5625 10.671875 18.554688 10.65625 18.554688 C 10.410156 18.539062 10.378906 18.523438 10.378906 18.398438 C 10.378906 18.28125 10.339844 18.265625 10.066406 18.261719 C 9.9375 18.257812 9.789062 18.253906 9.738281 18.253906 C 9.683594 18.25 9.648438 18.253906 9.652344 18.257812 M 9.601562 18.679688 C 9.601562 18.722656 9.609375 18.8125 9.625 18.882812 C 9.652344 19.042969 9.636719 19.066406 9.480469 19.066406 C 9.351562 19.066406 9.335938 19.089844 9.332031 19.253906 L 9.328125 19.308594 L 9.050781 19.308594 L 9.179688 19.320312 C 9.335938 19.339844 9.359375 19.328125 9.386719 19.242188 C 9.40625 19.183594 9.417969 19.175781 9.5 19.164062 C 9.714844 19.140625 9.769531 19.007812 9.652344 18.800781 C 9.640625 18.777344 9.625 18.726562 9.617188 18.683594 L 9.605469 18.605469 L 9.601562 18.679688 M 10.648438 18.796875 C 10.636719 18.808594 10.621094 18.835938 10.613281 18.855469 C 10.605469 18.875 10.59375 18.886719 10.582031 18.878906 C 10.570312 18.875 10.558594 18.882812 10.554688 18.902344 C 10.550781 18.933594 10.546875 18.933594 10.515625 18.902344 C 10.496094 18.882812 10.480469 18.875 10.480469 18.890625 C 10.480469 18.902344 10.464844 18.910156 10.449219 18.902344 C 10.429688 18.894531 10.417969 18.90625 10.410156 18.9375 C 10.390625 19.015625 10.40625 19.054688 10.460938 19.0625 C 10.519531 19.070312 10.566406 19.132812 10.574219 19.214844 C 10.585938 19.300781 10.589844 19.3125 10.652344 19.359375 L 10.710938 19.398438 L 10.851562 19.351562 L 10.988281 19.304688 L 10.828125 19.308594 L 10.671875 19.3125 L 10.675781 19.242188 C 10.675781 19.207031 10.683594 19.085938 10.691406 18.972656 C 10.703125 18.777344 10.695312 18.742188 10.648438 18.796875 M 8.78125 19.59375 C 8.78125 19.601562 8.792969 19.660156 8.808594 19.71875 C 8.847656 19.882812 8.816406 19.910156 8.613281 19.878906 C 8.347656 19.835938 8.214844 19.828125 8.300781 19.863281 C 8.339844 19.878906 8.390625 19.890625 8.414062 19.890625 C 8.441406 19.894531 8.496094 19.910156 8.539062 19.933594 C 8.621094 19.972656 8.792969 19.992188 8.839844 19.964844 C 8.933594 19.90625 8.910156 19.578125 8.808594 19.578125 C 8.792969 19.578125 8.78125 19.585938 8.78125 19.59375 M 11.417969 19.605469 C 11.429688 19.617188 11.441406 19.671875 11.441406 19.726562 C 11.449219 19.867188 11.507812 19.929688 11.601562 19.910156 C 11.679688 19.890625 11.726562 19.878906 11.738281 19.875 C 11.746094 19.871094 11.757812 19.871094 11.765625 19.871094 C 11.773438 19.875 11.78125 19.867188 11.78125 19.855469 C 11.78125 19.839844 11.734375 19.839844 11.648438 19.847656 L 11.519531 19.859375 L 11.519531 19.75 C 11.519531 19.609375 11.507812 19.578125 11.445312 19.578125 C 11.40625 19.578125 11.398438 19.585938 11.417969 19.605469 M 7.765625 19.855469 C 7.738281 19.867188 7.71875 19.886719 7.722656 19.898438 C 7.753906 20.132812 7.707031 20.183594 7.496094 20.152344 C 7.207031 20.113281 7.125 20.105469 7.160156 20.128906 C 7.253906 20.1875 7.652344 20.277344 7.671875 20.246094 C 7.675781 20.234375 7.699219 20.230469 7.71875 20.230469 C 7.773438 20.230469 7.820312 20.164062 7.832031 20.078125 C 7.835938 20.035156 7.84375 19.964844 7.851562 19.917969 C 7.863281 19.828125 7.851562 19.820312 7.765625 19.855469 M 11.933594 19.847656 C 11.960938 19.851562 11.996094 19.851562 12.015625 19.847656 C 12.035156 19.84375 12.015625 19.839844 11.96875 19.839844 C 11.925781 19.839844 11.910156 19.84375 11.933594 19.847656 M 12.136719 19.875 C 12.15625 19.902344 12.167969 19.949219 12.171875 20.019531 C 12.171875 20.136719 12.203125 20.191406 12.308594 20.242188 C 12.363281 20.269531 12.386719 20.269531 12.539062 20.234375 C 12.554688 20.230469 12.625 20.222656 12.691406 20.214844 C 12.796875 20.203125 12.957031 20.140625 12.933594 20.117188 C 12.925781 20.109375 12.449219 20.164062 12.40625 20.179688 C 12.347656 20.199219 12.296875 20.121094 12.292969 20.007812 C 12.292969 19.949219 12.285156 19.902344 12.273438 19.90625 C 12.265625 19.910156 12.261719 19.902344 12.261719 19.886719 C 12.261719 19.855469 12.21875 19.835938 12.148438 19.835938 C 12.101562 19.835938 12.101562 19.835938 12.136719 19.875 M 6.890625 20.144531 C 6.882812 20.164062 6.871094 20.222656 6.867188 20.277344 C 6.855469 20.394531 6.84375 20.410156 6.734375 20.4375 C 6.652344 20.457031 6.648438 20.460938 6.628906 20.554688 C 6.597656 20.695312 6.585938 20.714844 6.507812 20.742188 C 6.339844 20.796875 6.34375 20.953125 6.519531 21.0625 C 6.660156 21.152344 6.667969 21.164062 6.660156 21.351562 L 6.65625 21.5 L 6.738281 21.5625 C 6.820312 21.628906 6.914062 21.628906 7.046875 21.566406 C 7.070312 21.554688 7.125 21.5625 7.214844 21.589844 C 7.476562 21.667969 7.730469 21.613281 7.816406 21.457031 C 7.863281 21.371094 7.84375 21.371094 10.574219 21.371094 C 12.742188 21.371094 13.207031 21.367188 13.238281 21.347656 C 13.289062 21.3125 13.351562 21.234375 13.367188 21.183594 C 13.375 21.164062 13.433594 21.109375 13.5 21.066406 C 13.625 20.984375 13.636719 20.960938 13.621094 20.867188 C 13.613281 20.824219 13.589844 20.800781 13.527344 20.769531 C 13.40625 20.710938 13.359375 20.664062 13.359375 20.59375 C 13.359375 20.515625 13.34375 20.492188 13.265625 20.476562 C 13.164062 20.453125 13.121094 20.390625 13.117188 20.253906 C 13.113281 20.148438 13.109375 20.132812 13.074219 20.121094 C 12.96875 20.09375 12.957031 20.101562 12.96875 20.222656 C 12.984375 20.417969 13.023438 20.484375 13.183594 20.546875 C 13.199219 20.554688 13.234375 20.597656 13.257812 20.644531 C 13.304688 20.742188 13.390625 20.839844 13.425781 20.839844 C 13.542969 20.84375 13.554688 20.996094 13.4375 20.996094 C 13.390625 20.996094 13.328125 21.0625 13.269531 21.179688 L 13.21875 21.273438 L 10.542969 21.277344 L 7.871094 21.28125 L 7.785156 21.339844 C 7.730469 21.378906 7.699219 21.417969 7.699219 21.441406 C 7.699219 21.5625 7.285156 21.558594 7.164062 21.4375 C 7.113281 21.378906 7.078125 21.378906 7.027344 21.433594 C 6.988281 21.476562 6.875 21.527344 6.816406 21.527344 C 6.773438 21.527344 6.773438 21.53125 6.78125 21.332031 C 6.785156 21.121094 6.722656 20.996094 6.613281 20.996094 C 6.585938 20.996094 6.542969 20.980469 6.519531 20.960938 L 6.472656 20.925781 L 6.527344 20.875 C 6.648438 20.769531 6.6875 20.71875 6.71875 20.628906 C 6.742188 20.554688 6.765625 20.527344 6.824219 20.496094 C 6.886719 20.460938 6.949219 20.367188 6.9375 20.3125 C 6.925781 20.234375 6.941406 20.128906 6.96875 20.136719 C 6.988281 20.144531 7 20.140625 7 20.128906 C 7 20.097656 6.90625 20.109375 6.890625 20.144531 "/>
<path style=" stroke:none;fill-rule:evenodd;fill:rgb(23.529412%,23.529412%,26.666667%);fill-opacity:1;" d="M 0.539062 0.175781 C 0.175781 0.242188 0.15625 0.296875 0.167969 1.273438 C 0.175781 2.25 0.175781 2.246094 0.351562 2.28125 L 0.429688 2.296875 L 0.441406 2.441406 C 0.449219 2.582031 0.453125 2.589844 0.5 2.597656 C 0.570312 2.605469 0.71875 2.761719 0.71875 2.824219 C 0.71875 2.875 0.722656 2.875 0.847656 2.875 C 0.984375 2.875 1 2.886719 1 2.984375 C 1 3.070312 1.058594 3.113281 1.21875 3.136719 C 1.351562 3.160156 1.371094 3.167969 1.378906 3.210938 C 1.386719 3.242188 1.417969 3.273438 1.464844 3.292969 L 1.539062 3.328125 L 1.539062 3.476562 C 1.539062 3.683594 1.539062 3.683594 1.691406 3.683594 L 1.820312 3.683594 L 1.820312 3.8125 C 1.820312 3.902344 1.828125 3.945312 1.847656 3.953125 C 1.863281 3.957031 1.882812 3.992188 1.886719 4.027344 C 1.910156 4.144531 2.074219 4.234375 2.265625 4.234375 L 2.378906 4.234375 L 2.378906 4.480469 C 2.378906 4.753906 2.386719 4.785156 2.445312 4.785156 C 2.515625 4.789062 2.660156 4.949219 2.660156 5.027344 C 2.664062 5.238281 2.707031 5.304688 2.851562 5.328125 L 2.941406 5.339844 L 2.941406 7.289062 L 2.875 7.289062 C 2.675781 7.296875 2.675781 7.292969 2.664062 8.027344 L 2.648438 8.617188 L 2.558594 8.625 C 2.378906 8.636719 2.390625 8.515625 2.382812 10.121094 C 2.378906 11.792969 2.375 11.777344 2.566406 11.835938 L 2.660156 11.867188 L 2.660156 12.191406 L 2.558594 12.191406 C 2.367188 12.191406 2.378906 12.125 2.378906 13.011719 C 2.378906 13.683594 2.382812 13.789062 2.410156 13.800781 C 2.425781 13.808594 2.441406 13.832031 2.441406 13.859375 C 2.441406 13.925781 2.542969 14.023438 2.609375 14.023438 C 2.660156 14.023438 2.660156 14.023438 2.660156 14.199219 L 2.660156 14.375 L 2.554688 14.386719 C 2.375 14.40625 2.390625 14.296875 2.382812 15.714844 C 2.375 17.347656 2.375 17.328125 2.5625 17.351562 L 2.648438 17.363281 L 2.660156 17.890625 C 2.667969 18.328125 2.675781 18.421875 2.699219 18.441406 C 2.714844 18.457031 2.753906 18.5 2.78125 18.539062 C 2.808594 18.578125 2.855469 18.621094 2.886719 18.636719 L 2.941406 18.65625 L 2.941406 20.933594 L 2.835938 20.945312 C 2.707031 20.960938 2.683594 20.984375 2.667969 21.113281 L 2.65625 21.214844 L 2.550781 21.214844 C 2.382812 21.214844 2.378906 21.21875 2.378906 21.664062 L 2.378906 22.039062 L 2.121094 22.039062 C 1.824219 22.039062 1.820312 22.042969 1.820312 22.21875 C 1.820312 22.308594 1.816406 22.316406 1.769531 22.316406 C 1.617188 22.316406 1.5625 22.402344 1.546875 22.660156 L 1.535156 22.84375 L 1.4375 22.851562 C 1.3125 22.863281 1.277344 22.898438 1.265625 23.023438 L 1.253906 23.117188 L 1.070312 23.128906 C 0.792969 23.144531 0.722656 23.191406 0.71875 23.34375 C 0.71875 23.390625 0.710938 23.394531 0.605469 23.40625 C 0.453125 23.421875 0.449219 23.425781 0.441406 23.703125 L 0.4375 23.949219 L 0.320312 23.960938 L 0.203125 23.976562 L 0.179688 24.078125 C 0.136719 24.261719 0.160156 25.753906 0.207031 25.796875 C 0.257812 25.847656 19.554688 25.863281 19.574219 25.8125 C 19.578125 25.796875 19.605469 25.785156 19.632812 25.785156 C 19.792969 25.785156 19.835938 25.601562 19.839844 24.941406 C 19.839844 24.335938 19.824219 24.285156 19.636719 24.238281 L 19.585938 24.226562 L 19.574219 23.898438 C 19.558594 23.4375 19.558594 23.4375 19.339844 23.414062 C 19.300781 23.410156 19.289062 23.394531 19.273438 23.324219 C 19.257812 23.234375 19.175781 23.164062 19.085938 23.164062 C 19.0625 23.164062 19.035156 23.15625 19.03125 23.144531 C 19.023438 23.132812 18.949219 23.125 18.863281 23.125 L 18.710938 23.125 L 18.675781 23.042969 C 18.648438 22.984375 18.625 22.957031 18.5625 22.929688 L 18.480469 22.898438 L 18.480469 22.761719 C 18.480469 22.609375 18.46875 22.582031 18.410156 22.570312 C 18.390625 22.566406 18.367188 22.542969 18.359375 22.511719 C 18.351562 22.484375 18.320312 22.453125 18.277344 22.433594 C 18.210938 22.398438 18.210938 22.398438 18.199219 22.25 C 18.183594 22.042969 18.183594 22.039062 17.886719 22.039062 L 17.640625 22.039062 L 17.636719 21.632812 L 17.628906 21.222656 L 17.496094 21.21875 L 17.363281 21.210938 L 17.355469 20.636719 C 17.34375 19.921875 17.324219 19.855469 17.121094 19.855469 C 17.0625 19.855469 17.058594 19.519531 17.113281 19.519531 C 17.324219 19.515625 17.359375 19.371094 17.359375 18.53125 L 17.359375 17.90625 L 17.453125 17.902344 C 17.628906 17.890625 17.628906 17.886719 17.636719 17.15625 C 17.640625 16.542969 17.644531 16.527344 17.683594 16.527344 C 17.878906 16.527344 17.90625 16.453125 17.914062 15.855469 C 17.925781 15.1875 17.894531 15.027344 17.722656 14.96875 L 17.640625 14.941406 L 17.640625 14.554688 C 17.640625 14.109375 17.636719 14.105469 17.46875 14.101562 L 17.371094 14.097656 L 17.457031 14.082031 C 17.597656 14.054688 17.640625 13.960938 17.640625 13.644531 L 17.640625 13.515625 L 17.734375 13.507812 C 17.890625 13.5 17.910156 13.4375 17.910156 12.988281 C 17.910156 12.542969 17.878906 12.46875 17.6875 12.46875 C 17.644531 12.46875 17.640625 12.460938 17.640625 12.355469 C 17.640625 12.207031 17.605469 11.976562 17.578125 11.945312 C 17.5625 11.925781 17.570312 11.90625 17.597656 11.878906 C 17.636719 11.839844 17.640625 11.816406 17.640625 11.445312 L 17.640625 11.050781 L 17.710938 11.050781 C 17.886719 11.050781 17.910156 10.949219 17.910156 10.253906 C 17.910156 9.621094 17.886719 9.496094 17.773438 9.492188 C 17.632812 9.492188 17.644531 9.539062 17.636719 8.855469 C 17.628906 8.113281 17.632812 8.128906 17.417969 8.085938 L 17.363281 8.074219 L 17.355469 7.410156 C 17.34375 6.574219 17.320312 6.488281 17.113281 6.480469 C 17.050781 6.480469 17.0625 6.144531 17.128906 6.144531 C 17.332031 6.144531 17.34375 6.109375 17.355469 5.382812 L 17.363281 4.789062 L 17.496094 4.78125 L 17.628906 4.777344 L 17.636719 4.503906 L 17.640625 4.234375 L 17.757812 4.234375 C 17.871094 4.234375 17.921875 4.210938 17.921875 4.160156 C 17.921875 4.117188 18.085938 3.964844 18.140625 3.957031 C 18.1875 3.949219 18.191406 3.941406 18.195312 3.816406 L 18.203125 3.683594 L 18.320312 3.683594 C 18.472656 3.683594 18.480469 3.667969 18.480469 3.367188 L 18.480469 3.152344 L 18.59375 3.152344 C 18.722656 3.152344 18.753906 3.140625 18.761719 3.082031 C 18.765625 3.058594 18.789062 3.039062 18.816406 3.035156 C 18.839844 3.03125 18.875 3 18.902344 2.953125 L 18.949219 2.875 L 19.101562 2.875 C 19.285156 2.875 19.300781 2.863281 19.300781 2.699219 L 19.300781 2.601562 L 19.414062 2.601562 C 19.570312 2.601562 19.578125 2.585938 19.578125 2.386719 L 19.578125 2.222656 L 19.664062 2.140625 C 19.710938 2.09375 19.765625 2.050781 19.789062 2.039062 C 19.855469 2.003906 19.863281 1.914062 19.855469 1.183594 C 19.851562 0.484375 19.847656 0.472656 19.804688 0.433594 C 19.78125 0.414062 19.757812 0.378906 19.75 0.359375 C 19.746094 0.339844 19.707031 0.304688 19.664062 0.277344 C 19.625 0.25 19.585938 0.21875 19.578125 0.210938 C 19.574219 0.203125 19.519531 0.1875 19.460938 0.175781 C 19.332031 0.152344 0.679688 0.152344 0.539062 0.175781 M 4.925781 4.464844 C 4.941406 4.484375 5.003906 4.5 5.058594 4.507812 L 5.160156 4.515625 L 5.160156 4.804688 L 5.058594 4.804688 C 4.875 4.804688 4.878906 4.792969 4.878906 5.226562 L 4.878906 5.609375 L 4.777344 5.625 C 4.601562 5.648438 4.609375 5.59375 4.609375 6.707031 C 4.609375 7.820312 4.601562 7.765625 4.777344 7.789062 L 4.878906 7.804688 L 4.882812 8.183594 C 4.890625 8.617188 4.882812 8.59375 5.039062 8.605469 L 5.160156 8.613281 L 5.160156 8.851562 C 5.160156 9.136719 5.171875 9.160156 5.332031 9.160156 L 5.433594 9.160156 L 5.445312 9.3125 C 5.457031 9.527344 5.5 9.613281 5.625 9.652344 L 5.71875 9.679688 L 5.71875 9.800781 C 5.71875 9.945312 5.742188 9.96875 5.878906 9.980469 L 5.976562 9.992188 L 5.984375 10.097656 C 5.996094 10.230469 6.011719 10.246094 6.148438 10.257812 L 6.261719 10.265625 L 6.261719 10.363281 C 6.261719 10.492188 6.304688 10.539062 6.441406 10.539062 L 6.539062 10.539062 L 6.539062 10.617188 C 6.539062 10.769531 6.5625 10.792969 6.699219 10.792969 C 6.816406 10.792969 6.820312 10.796875 6.820312 10.847656 C 6.820312 11.023438 6.871094 11.070312 7.070312 11.070312 C 7.125 11.070312 7.132812 11.078125 7.15625 11.160156 C 7.1875 11.257812 7.242188 11.304688 7.324219 11.304688 C 7.355469 11.304688 7.378906 11.316406 7.378906 11.324219 C 7.378906 11.335938 7.441406 11.34375 7.519531 11.34375 L 7.660156 11.34375 L 7.660156 11.460938 C 7.660156 11.601562 7.679688 11.621094 7.820312 11.621094 L 7.933594 11.621094 L 7.945312 11.738281 C 7.953125 11.882812 7.953125 11.882812 8.101562 11.894531 L 8.21875 11.902344 L 8.21875 12.191406 L 8.085938 12.195312 L 7.949219 12.203125 L 7.945312 12.464844 L 7.9375 12.722656 L 7.859375 12.722656 C 7.574219 12.722656 7.601562 13.363281 7.890625 13.472656 C 7.9375 13.492188 7.941406 13.5 7.941406 13.636719 C 7.941406 13.742188 7.949219 13.789062 7.96875 13.808594 C 7.988281 13.820312 8 13.84375 8 13.855469 C 8 13.894531 8.136719 14.023438 8.179688 14.023438 C 8.203125 14.023438 8.21875 14.039062 8.21875 14.054688 C 8.21875 14.078125 8.25 14.085938 8.355469 14.085938 L 8.488281 14.089844 L 8.230469 14.113281 L 8.222656 14.246094 L 8.21875 14.378906 L 8.089844 14.378906 C 7.945312 14.378906 7.941406 14.382812 7.941406 14.546875 L 7.941406 14.65625 L 7.808594 14.65625 C 7.699219 14.65625 7.675781 14.660156 7.667969 14.6875 C 7.660156 14.707031 7.625 14.742188 7.582031 14.765625 C 7.539062 14.789062 7.496094 14.835938 7.480469 14.871094 C 7.457031 14.925781 7.449219 14.929688 7.347656 14.929688 C 7.183594 14.929688 7.121094 14.984375 7.121094 15.125 C 7.121094 15.1875 7.117188 15.1875 7.015625 15.1875 C 6.867188 15.1875 6.835938 15.214844 6.824219 15.351562 L 6.816406 15.460938 L 6.71875 15.460938 C 6.585938 15.460938 6.539062 15.507812 6.539062 15.640625 L 6.539062 15.738281 L 6.429688 15.738281 C 6.289062 15.738281 6.261719 15.765625 6.261719 15.90625 L 6.261719 16.011719 L 6.160156 16.011719 C 6.023438 16.011719 5.980469 16.058594 5.980469 16.191406 L 5.980469 16.289062 L 5.902344 16.289062 C 5.742188 16.289062 5.71875 16.3125 5.71875 16.453125 L 5.71875 16.582031 L 5.628906 16.597656 C 5.488281 16.621094 5.460938 16.671875 5.445312 16.914062 L 5.433594 17.117188 L 5.316406 17.117188 C 5.167969 17.117188 5.160156 17.132812 5.160156 17.421875 L 5.160156 17.648438 L 5.0625 17.648438 C 4.890625 17.648438 4.890625 17.648438 4.882812 18.097656 L 4.878906 18.496094 L 4.800781 18.515625 C 4.617188 18.5625 4.609375 18.597656 4.609375 19.53125 C 4.609375 20.402344 4.601562 20.359375 4.765625 20.371094 L 4.871094 20.375 L 4.875 20.820312 C 4.878906 21.167969 4.875 21.257812 4.855469 21.238281 C 4.84375 21.222656 4.777344 21.214844 4.710938 21.214844 L 4.585938 21.214844 L 4.578125 20.390625 C 4.570312 19.9375 4.574219 19.195312 4.578125 18.742188 L 4.589844 17.914062 L 4.710938 17.90625 C 4.863281 17.890625 4.855469 17.921875 4.859375 17.253906 L 4.859375 16.710938 L 4.996094 16.589844 L 5.128906 16.464844 L 5.128906 15.800781 C 5.128906 14.992188 5.113281 14.929688 4.898438 14.929688 C 4.863281 14.929688 4.859375 14.90625 4.859375 14.550781 C 4.859375 14.105469 4.859375 14.105469 4.683594 14.101562 L 4.570312 14.097656 L 4.675781 14.082031 C 4.839844 14.058594 4.847656 14.042969 4.855469 13.769531 L 4.863281 13.535156 L 4.96875 13.523438 C 5.132812 13.503906 5.128906 13.507812 5.128906 13.042969 C 5.128906 12.527344 5.109375 12.46875 4.933594 12.46875 L 4.867188 12.46875 L 4.855469 12.246094 C 4.847656 12.125 4.847656 11.8125 4.855469 11.550781 L 4.871094 11.078125 L 4.96875 11.070312 C 5.140625 11.046875 5.144531 11.027344 5.136719 10.210938 C 5.125 9.464844 5.136719 9.5 4.898438 9.46875 C 4.875 9.464844 4.867188 9.375 4.859375 8.84375 C 4.847656 8.109375 4.847656 8.113281 4.667969 8.085938 L 4.585938 8.074219 L 4.574219 7.203125 C 4.570312 6.722656 4.570312 6.046875 4.574219 5.699219 L 4.585938 5.0625 L 4.65625 5.050781 C 4.84375 5.019531 4.847656 5.015625 4.859375 4.578125 C 4.863281 4.316406 4.871094 4.253906 4.882812 4.332031 C 4.890625 4.390625 4.910156 4.449219 4.925781 4.464844 M 15.160156 4.472656 C 15.160156 4.773438 15.167969 4.785156 15.320312 4.785156 L 15.441406 4.785156 L 15.441406 4.863281 C 15.441406 4.972656 15.460938 5.0625 15.488281 5.0625 C 15.5 5.0625 15.53125 5.097656 15.558594 5.140625 C 15.59375 5.195312 15.628906 5.226562 15.664062 5.234375 L 15.71875 5.246094 L 15.71875 7.308594 L 15.664062 7.308594 C 15.484375 7.308594 15.441406 7.472656 15.441406 8.121094 L 15.441406 8.625 L 15.351562 8.636719 C 15.15625 8.667969 15.160156 8.605469 15.160156 10.207031 C 15.160156 11.738281 15.144531 11.621094 15.339844 11.621094 L 15.441406 11.621094 L 15.441406 12.191406 L 15.324219 12.191406 C 15.261719 12.191406 15.195312 12.203125 15.183594 12.214844 C 15.140625 12.257812 15.152344 13.789062 15.195312 13.800781 C 15.214844 13.804688 15.25 13.84375 15.277344 13.886719 C 15.304688 13.929688 15.351562 13.972656 15.382812 13.984375 C 15.441406 14.007812 15.441406 14.011719 15.441406 14.191406 L 15.441406 14.375 L 15.339844 14.390625 C 15.148438 14.414062 15.15625 14.332031 15.164062 15.984375 C 15.171875 17.46875 15.160156 17.367188 15.328125 17.375 L 15.429688 17.382812 L 15.441406 18.003906 C 15.449219 18.34375 15.457031 18.628906 15.457031 18.636719 C 15.460938 18.664062 15.546875 18.699219 15.628906 18.710938 L 15.710938 18.722656 L 15.71875 20.933594 L 15.617188 20.945312 C 15.480469 20.964844 15.464844 20.976562 15.449219 21.105469 L 15.433594 21.214844 L 15.335938 21.214844 C 15.164062 21.214844 15.160156 21.226562 15.15625 21.671875 C 15.15625 21.9375 15.148438 22.015625 15.140625 21.9375 C 15.121094 21.792969 15.109375 21.78125 14.96875 21.769531 L 14.859375 21.761719 L 14.859375 21.46875 L 14.949219 21.46875 C 15.128906 21.46875 15.140625 21.4375 15.140625 20.996094 L 15.140625 20.621094 L 15.210938 20.621094 C 15.398438 20.621094 15.410156 20.558594 15.410156 19.484375 L 15.410156 18.570312 L 15.367188 18.535156 C 15.339844 18.515625 15.28125 18.492188 15.230469 18.488281 L 15.140625 18.472656 L 15.140625 18.101562 C 15.140625 17.660156 15.136719 17.648438 14.960938 17.648438 L 14.859375 17.648438 L 14.859375 17.414062 C 14.859375 17.109375 14.863281 17.117188 14.710938 17.117188 L 14.585938 17.117188 L 14.574219 16.914062 C 14.554688 16.609375 14.550781 16.609375 14.441406 16.59375 C 14.296875 16.574219 14.300781 16.578125 14.300781 16.457031 C 14.300781 16.320312 14.269531 16.289062 14.128906 16.289062 L 14.019531 16.289062 L 14.019531 16.164062 C 14.019531 16.019531 14.011719 16.011719 13.859375 16.011719 L 13.761719 16.011719 L 13.761719 15.898438 C 13.761719 15.757812 13.742188 15.738281 13.597656 15.738281 L 13.480469 15.738281 L 13.480469 15.632812 C 13.480469 15.492188 13.449219 15.460938 13.308594 15.460938 L 13.199219 15.460938 L 13.199219 15.363281 C 13.199219 15.230469 13.15625 15.1875 13.023438 15.1875 L 12.925781 15.1875 L 12.914062 15.09375 C 12.894531 14.964844 12.855469 14.929688 12.726562 14.929688 C 12.628906 14.929688 12.621094 14.925781 12.609375 14.875 C 12.566406 14.699219 12.527344 14.675781 12.265625 14.660156 L 12.078125 14.648438 L 12.078125 14.539062 C 12.078125 14.398438 12.058594 14.378906 11.914062 14.378906 L 11.800781 14.378906 L 11.800781 14.25 C 11.800781 14.136719 11.796875 14.121094 11.757812 14.105469 C 11.722656 14.09375 11.734375 14.085938 11.820312 14.070312 C 12.042969 14.023438 12.078125 13.964844 12.078125 13.644531 C 12.078125 13.527344 12.09375 13.511719 12.230469 13.511719 C 12.328125 13.511719 12.34375 13.453125 12.355469 13.109375 C 12.371094 12.660156 12.320312 12.507812 12.148438 12.476562 L 12.078125 12.464844 L 12.078125 12.339844 C 12.078125 12.199219 12.074219 12.191406 11.910156 12.191406 L 11.800781 12.191406 L 11.800781 11.898438 L 11.917969 11.898438 C 12.058594 11.898438 12.078125 11.875 12.078125 11.722656 L 12.078125 11.621094 L 12.195312 11.621094 C 12.339844 11.621094 12.359375 11.601562 12.359375 11.460938 L 12.359375 11.347656 L 12.503906 11.339844 C 12.800781 11.320312 12.839844 11.300781 12.878906 11.144531 C 12.898438 11.078125 12.902344 11.074219 13.019531 11.0625 C 13.15625 11.046875 13.175781 11.027344 13.195312 10.894531 L 13.207031 10.792969 L 13.308594 10.792969 C 13.4375 10.792969 13.460938 10.769531 13.476562 10.636719 L 13.484375 10.539062 L 13.582031 10.539062 C 13.714844 10.539062 13.761719 10.492188 13.761719 10.359375 L 13.761719 10.261719 L 13.839844 10.261719 C 13.992188 10.261719 14.019531 10.238281 14.019531 10.105469 C 14.019531 9.988281 14.019531 9.988281 14.074219 9.984375 C 14.257812 9.984375 14.300781 9.9375 14.300781 9.726562 C 14.300781 9.671875 14.308594 9.648438 14.335938 9.640625 C 14.480469 9.59375 14.578125 9.445312 14.578125 9.273438 L 14.578125 9.160156 L 14.679688 9.160156 C 14.84375 9.160156 14.859375 9.128906 14.859375 8.847656 L 14.859375 8.613281 L 14.96875 8.601562 C 15.132812 8.589844 15.128906 8.597656 15.136719 8.164062 L 15.140625 7.78125 L 15.210938 7.78125 C 15.414062 7.78125 15.425781 7.707031 15.417969 6.566406 C 15.410156 5.617188 15.417969 5.65625 15.214844 5.625 L 15.140625 5.613281 L 15.140625 5.230469 C 15.140625 4.800781 15.148438 4.820312 14.980469 4.804688 L 14.871094 4.796875 L 14.863281 4.644531 C 14.859375 4.492188 14.859375 4.492188 14.90625 4.492188 C 15.042969 4.492188 15.121094 4.414062 15.121094 4.28125 C 15.121094 4.253906 15.128906 4.234375 15.140625 4.234375 C 15.152344 4.234375 15.160156 4.328125 15.160156 4.472656 M 13.21875 5.148438 C 13.21875 5.253906 13.273438 5.304688 13.398438 5.324219 L 13.480469 5.339844 L 13.480469 5.492188 C 13.480469 5.773438 13.523438 5.851562 13.679688 5.878906 L 13.761719 5.890625 L 13.761719 6.710938 L 13.824219 6.738281 C 13.925781 6.78125 13.972656 6.859375 13.964844 6.980469 C 13.960938 7.035156 13.960938 7.242188 13.960938 7.441406 C 13.960938 7.84375 13.933594 7.941406 13.816406 7.96875 C 13.730469 7.988281 13.679688 8.078125 13.679688 8.214844 C 13.679688 8.363281 13.636719 8.460938 13.550781 8.503906 C 13.441406 8.558594 13.378906 8.613281 13.390625 8.644531 C 13.460938 8.875 13.417969 9.046875 13.273438 9.101562 C 13.167969 9.136719 13.15625 9.148438 13.128906 9.226562 C 13.09375 9.324219 13.042969 9.375 12.980469 9.375 C 12.914062 9.375 12.875 9.417969 12.839844 9.527344 C 12.816406 9.601562 12.804688 9.617188 12.730469 9.636719 C 12.625 9.664062 12.59375 9.695312 12.570312 9.792969 C 12.550781 9.867188 12.539062 9.878906 12.457031 9.90625 C 12.339844 9.945312 12.300781 9.980469 12.300781 10.035156 C 12.300781 10.101562 12.28125 10.144531 12.25 10.144531 C 12.238281 10.144531 12.214844 10.15625 12.203125 10.171875 C 12.1875 10.1875 12.152344 10.203125 12.121094 10.210938 C 12.074219 10.21875 12.050781 10.242188 12.015625 10.316406 C 11.984375 10.382812 11.949219 10.417969 11.886719 10.449219 C 11.765625 10.511719 11.726562 10.542969 11.699219 10.597656 C 11.6875 10.628906 11.648438 10.664062 11.613281 10.6875 C 11.535156 10.730469 11.460938 10.804688 11.417969 10.882812 C 11.375 10.960938 11.261719 11.011719 11.109375 11.027344 C 10.960938 11.039062 10.921875 11.070312 10.921875 11.1875 C 10.921875 11.351562 10.867188 11.460938 10.75 11.535156 C 10.679688 11.578125 10.625 11.628906 10.601562 11.679688 C 10.574219 11.730469 10.53125 11.773438 10.484375 11.796875 C 10.367188 11.855469 10.355469 11.890625 10.363281 12.222656 C 10.371094 12.636719 10.324219 12.699219 10.003906 12.671875 C 9.6875 12.648438 9.667969 12.621094 9.648438 12.167969 C 9.632812 11.855469 9.632812 11.855469 9.515625 11.820312 C 9.414062 11.785156 9.398438 11.765625 9.375 11.558594 C 9.351562 11.351562 9.339844 11.320312 9.289062 11.308594 C 9.199219 11.296875 9.148438 11.261719 9.125 11.203125 C 9.109375 11.167969 9.089844 11.121094 9.078125 11.09375 C 9.070312 11.070312 9.03125 11.042969 8.984375 11.027344 C 8.898438 11.003906 8.832031 10.929688 8.808594 10.84375 C 8.796875 10.792969 8.746094 10.769531 8.570312 10.746094 C 8.453125 10.726562 8.355469 10.675781 8.320312 10.609375 C 8.277344 10.527344 8.199219 10.449219 8.125 10.414062 C 8.089844 10.394531 8.050781 10.359375 8.039062 10.335938 C 8 10.261719 7.9375 10.207031 7.878906 10.191406 C 7.847656 10.1875 7.820312 10.171875 7.820312 10.160156 C 7.820312 10.152344 7.804688 10.144531 7.789062 10.144531 C 7.773438 10.144531 7.746094 10.109375 7.730469 10.070312 C 7.683594 9.953125 7.671875 9.945312 7.585938 9.910156 C 7.492188 9.875 7.441406 9.820312 7.441406 9.757812 C 7.441406 9.707031 7.386719 9.660156 7.308594 9.640625 C 7.226562 9.621094 7.1875 9.582031 7.171875 9.503906 C 7.15625 9.429688 7.097656 9.375 7.03125 9.375 C 6.964844 9.375 6.921875 9.328125 6.886719 9.230469 C 6.863281 9.15625 6.84375 9.136719 6.75 9.09375 C 6.664062 9.050781 6.644531 9.027344 6.625 8.964844 C 6.597656 8.882812 6.546875 8.839844 6.453125 8.816406 C 6.421875 8.808594 6.394531 8.789062 6.386719 8.769531 C 6.378906 8.75 6.363281 8.730469 6.355469 8.722656 C 6.34375 8.714844 6.328125 8.628906 6.316406 8.527344 C 6.296875 8.34375 6.273438 8.292969 6.207031 8.292969 C 6.09375 8.289062 6.019531 8.136719 6.042969 7.957031 C 6.050781 7.898438 6.050781 7.722656 6.042969 7.570312 C 6.03125 7.203125 6.0625 7.074219 6.183594 7.019531 L 6.261719 6.988281 L 6.261719 5.871094 L 6.3125 5.871094 C 6.464844 5.871094 6.519531 5.78125 6.519531 5.527344 L 6.519531 5.339844 L 6.605469 5.328125 C 6.722656 5.308594 6.78125 5.269531 6.78125 5.203125 C 6.78125 5.175781 6.785156 5.128906 6.792969 5.105469 L 6.804688 5.0625 L 13.21875 5.0625 L 13.21875 5.148438 M 12.972656 6.460938 C 12.78125 6.488281 12.714844 6.53125 12.699219 6.632812 L 12.6875 6.710938 L 12.777344 6.722656 C 12.9375 6.734375 13.675781 6.726562 13.691406 6.710938 C 13.703125 6.703125 13.6875 6.65625 13.664062 6.613281 C 13.59375 6.480469 13.304688 6.417969 12.972656 6.460938 M 11.820312 6.734375 C 11.820312 6.742188 11.78125 6.761719 11.734375 6.773438 C 11.664062 6.792969 11.640625 6.8125 11.613281 6.867188 C 11.558594 6.976562 11.566406 6.988281 11.691406 6.996094 C 11.8125 7.003906 11.847656 6.972656 11.839844 6.867188 C 11.832031 6.796875 11.839844 6.78125 11.871094 6.746094 C 11.898438 6.71875 11.898438 6.714844 11.863281 6.714844 C 11.839844 6.714844 11.820312 6.722656 11.820312 6.734375 M 8.429688 7.042969 C 8.4375 7.074219 8.449219 7.132812 8.449219 7.167969 C 8.457031 7.257812 8.476562 7.308594 8.507812 7.296875 C 8.527344 7.289062 8.792969 7.273438 8.933594 7.269531 C 9.03125 7.265625 8.910156 7.050781 8.808594 7.050781 C 8.785156 7.050781 8.757812 7.039062 8.753906 7.027344 C 8.75 7.011719 8.6875 7 8.582031 6.996094 L 8.414062 6.988281 L 8.429688 7.042969 M 11.023438 7.023438 C 10.972656 7.058594 10.957031 7.265625 11.003906 7.269531 C 11.019531 7.269531 11.082031 7.273438 11.144531 7.28125 C 11.269531 7.292969 11.277344 7.289062 11.289062 7.167969 C 11.300781 7.054688 11.316406 7.015625 11.355469 7.003906 C 11.375 7 11.316406 6.996094 11.230469 6.996094 C 11.113281 6.992188 11.054688 7 11.023438 7.023438 M 9.214844 7.289062 C 9.238281 7.296875 9.261719 7.316406 9.269531 7.328125 C 9.28125 7.34375 9.277344 7.347656 9.261719 7.335938 C 9.242188 7.324219 9.238281 7.328125 9.25 7.347656 C 9.261719 7.363281 9.269531 7.417969 9.269531 7.464844 L 9.269531 7.554688 L 10.449219 7.554688 L 10.460938 7.4375 C 10.46875 7.355469 10.480469 7.316406 10.507812 7.296875 C 10.542969 7.273438 10.511719 7.269531 10.261719 7.269531 C 9.988281 7.269531 9.910156 7.28125 9.875 7.335938 C 9.863281 7.351562 9.859375 7.351562 9.859375 7.332031 C 9.859375 7.320312 9.828125 7.300781 9.785156 7.289062 C 9.691406 7.265625 9.148438 7.261719 9.214844 7.289062 M 10.257812 14.445312 C 10.371094 14.5 10.460938 14.792969 10.378906 14.84375 C 10.367188 14.847656 10.363281 14.863281 10.371094 14.871094 C 10.382812 14.890625 10.3125 14.894531 9.953125 14.894531 C 9.707031 14.890625 9.667969 14.878906 9.648438 14.789062 C 9.613281 14.625 9.652344 14.503906 9.757812 14.449219 C 9.824219 14.410156 10.1875 14.410156 10.257812 14.445312 M 10.378906 14.949219 C 10.402344 14.964844 10.414062 15.023438 10.421875 15.210938 L 10.429688 15.453125 L 10.726562 15.453125 L 10.742188 15.519531 C 10.769531 15.65625 10.890625 15.71875 11.136719 15.71875 L 11.261719 15.71875 L 11.261719 15.84375 C 11.261719 15.988281 11.265625 15.992188 11.433594 15.992188 L 11.539062 15.992188 L 11.539062 16.113281 C 11.539062 16.25 11.5625 16.269531 11.71875 16.269531 L 11.820312 16.269531 L 11.820312 16.359375 C 11.820312 16.480469 11.882812 16.546875 12.007812 16.546875 L 12.09375 16.546875 L 12.109375 16.640625 C 12.125 16.757812 12.164062 16.796875 12.285156 16.8125 C 12.375 16.824219 12.378906 16.828125 12.390625 16.90625 C 12.410156 17.035156 12.445312 17.070312 12.558594 17.085938 C 12.652344 17.101562 12.660156 17.105469 12.660156 17.160156 C 12.660156 17.308594 12.730469 17.371094 12.890625 17.371094 C 12.929688 17.371094 12.9375 17.386719 12.945312 17.492188 C 12.957031 17.640625 12.953125 17.632812 13.101562 17.644531 L 13.21875 17.652344 L 13.21875 17.90625 L 13.480469 17.90625 L 13.480469 18.15625 C 13.480469 18.421875 13.488281 18.457031 13.574219 18.457031 C 13.601562 18.457031 13.621094 18.472656 13.628906 18.496094 C 13.636719 18.515625 13.667969 18.546875 13.703125 18.566406 L 13.761719 18.59375 L 13.761719 20.386719 L 13.480469 20.386719 L 13.480469 20.273438 C 13.480469 20.121094 13.464844 20.109375 13.273438 20.109375 C 13.136719 20.109375 13.117188 20.113281 13.140625 20.140625 C 13.152344 20.15625 13.167969 20.214844 13.171875 20.273438 C 13.1875 20.398438 13.191406 20.402344 13.285156 20.410156 C 13.390625 20.417969 13.441406 20.464844 13.441406 20.570312 C 13.441406 20.671875 13.460938 20.691406 13.570312 20.707031 C 13.773438 20.738281 13.75 21.136719 13.539062 21.136719 C 13.476562 21.136719 13.4375 21.175781 13.394531 21.292969 C 13.339844 21.4375 13.511719 21.429688 10.566406 21.429688 C 7.609375 21.429688 7.90625 21.414062 7.832031 21.574219 C 7.8125 21.617188 7.785156 21.648438 7.761719 21.648438 C 7.742188 21.648438 7.71875 21.65625 7.707031 21.667969 C 7.6875 21.6875 7.324219 21.695312 7.171875 21.675781 C 7.113281 21.671875 7.011719 21.671875 6.941406 21.679688 C 6.683594 21.714844 6.601562 21.632812 6.601562 21.355469 C 6.601562 21.191406 6.570312 21.136719 6.488281 21.136719 C 6.382812 21.136719 6.292969 20.980469 6.320312 20.84375 C 6.339844 20.742188 6.332031 20.746094 6.453125 20.703125 C 6.550781 20.671875 6.550781 20.667969 6.5625 20.5625 C 6.578125 20.441406 6.613281 20.40625 6.722656 20.40625 C 6.8125 20.40625 6.84375 20.371094 6.839844 20.273438 C 6.839844 20.234375 6.84375 20.179688 6.851562 20.152344 C 6.867188 20.105469 6.867188 20.105469 6.734375 20.113281 C 6.570312 20.125 6.554688 20.136719 6.542969 20.277344 L 6.535156 20.386719 L 6.261719 20.386719 L 6.261719 18.730469 L 6.351562 18.730469 C 6.515625 18.730469 6.519531 18.726562 6.519531 18.4375 L 6.519531 18.1875 L 6.644531 18.167969 L 6.769531 18.152344 L 6.785156 18.070312 C 6.792969 18.027344 6.796875 17.914062 6.800781 17.820312 L 6.800781 17.648438 L 6.914062 17.648438 C 7.0625 17.648438 7.078125 17.628906 7.078125 17.488281 L 7.078125 17.371094 L 7.1875 17.371094 C 7.332031 17.371094 7.359375 17.34375 7.359375 17.203125 L 7.359375 17.097656 L 7.460938 17.097656 C 7.59375 17.097656 7.640625 17.054688 7.640625 16.917969 L 7.640625 16.820312 L 7.75 16.820312 C 7.820312 16.820312 7.867188 16.8125 7.886719 16.789062 C 7.910156 16.769531 7.921875 16.722656 7.921875 16.652344 L 7.921875 16.546875 L 8.035156 16.546875 C 8.179688 16.546875 8.199219 16.527344 8.199219 16.382812 L 8.199219 16.269531 L 8.332031 16.269531 C 8.449219 16.269531 8.464844 16.265625 8.472656 16.230469 C 8.480469 16.207031 8.511719 16.175781 8.542969 16.160156 C 8.574219 16.144531 8.617188 16.097656 8.632812 16.0625 C 8.660156 16.007812 8.679688 15.992188 8.722656 15.992188 C 8.933594 15.992188 9.019531 15.9375 9.019531 15.800781 L 9.019531 15.722656 L 9.140625 15.710938 C 9.289062 15.699219 9.28125 15.707031 9.292969 15.5625 C 9.308594 15.421875 9.371094 15.390625 9.417969 15.5 C 9.4375 15.546875 9.550781 15.640625 9.589844 15.640625 C 9.59375 15.640625 9.601562 15.496094 9.605469 15.324219 C 9.613281 14.90625 9.585938 14.929688 10.027344 14.929688 C 10.203125 14.929688 10.363281 14.9375 10.378906 14.949219 M 9.601562 15.769531 C 9.601562 15.785156 9.566406 15.8125 9.523438 15.832031 C 9.441406 15.863281 9.425781 15.882812 9.371094 16.035156 C 9.34375 16.101562 9.335938 16.171875 9.34375 16.289062 C 9.351562 16.472656 9.375 16.503906 9.507812 16.519531 C 9.582031 16.527344 9.601562 16.539062 9.601562 16.570312 C 9.601562 16.601562 9.609375 16.605469 9.664062 16.597656 C 9.699219 16.589844 9.765625 16.582031 9.808594 16.574219 C 9.890625 16.5625 9.925781 16.546875 9.878906 16.542969 C 9.800781 16.535156 9.726562 16.53125 9.695312 16.527344 C 9.613281 16.523438 9.605469 16.480469 9.601562 16.132812 C 9.597656 15.851562 9.601562 15.796875 9.628906 15.769531 C 9.660156 15.742188 9.660156 15.738281 9.632812 15.738281 C 9.613281 15.738281 9.601562 15.75 9.601562 15.769531 M 10.421875 16.179688 L 10.421875 16.511719 L 10.464844 16.5 C 10.488281 16.492188 10.527344 16.488281 10.542969 16.488281 C 10.707031 16.484375 10.679688 16.101562 10.507812 15.933594 L 10.421875 15.847656 L 10.421875 16.179688 M 9.484375 16.839844 C 9.324219 16.859375 9.308594 16.902344 9.324219 17.417969 C 9.335938 17.851562 9.359375 17.90625 9.53125 17.90625 L 9.601562 17.90625 L 9.601562 18.230469 L 9.988281 18.226562 C 10.421875 18.21875 10.402344 18.214844 10.410156 18.359375 C 10.417969 18.5 10.410156 18.488281 10.535156 18.5 C 10.597656 18.503906 10.652344 18.519531 10.65625 18.53125 C 10.675781 18.59375 10.699219 18.539062 10.699219 18.425781 C 10.699219 18.257812 10.652344 18.199219 10.511719 18.199219 L 10.421875 18.199219 L 10.421875 17.90625 L 10.5 17.886719 C 10.652344 17.84375 10.71875 17.613281 10.695312 17.183594 C 10.679688 16.898438 10.664062 16.875 10.484375 16.855469 L 10.421875 16.847656 L 10.417969 17.3125 C 10.417969 17.96875 10.460938 17.90625 10.011719 17.902344 C 9.566406 17.902344 9.609375 17.953125 9.605469 17.425781 C 9.601562 17.1875 9.597656 16.953125 9.59375 16.910156 L 9.589844 16.832031 L 9.484375 16.839844 M 9.546875 18.550781 C 9.496094 18.558594 9.398438 18.644531 9.398438 18.6875 C 9.398438 18.703125 9.382812 18.738281 9.359375 18.765625 C 9.332031 18.800781 9.320312 18.847656 9.320312 18.929688 L 9.320312 19.042969 L 9.230469 19.054688 C 9.128906 19.070312 9.058594 19.148438 9.058594 19.25 C 9.058594 19.300781 9.0625 19.304688 9.191406 19.304688 L 9.320312 19.304688 L 9.320312 19.207031 C 9.320312 19.0625 9.355469 19.035156 9.53125 19.046875 C 9.617188 19.050781 9.617188 19.050781 9.601562 18.78125 C 9.589844 18.554688 9.589844 18.542969 9.546875 18.550781 M 10.699219 19.164062 L 10.699219 19.304688 L 10.980469 19.304688 L 10.980469 19.230469 C 10.980469 19.074219 10.929688 19.027344 10.765625 19.027344 L 10.699219 19.027344 L 10.699219 19.164062 M 8.308594 19.601562 C 8.257812 19.625 8.21875 19.699219 8.21875 19.773438 L 8.21875 19.828125 L 8.484375 19.839844 C 8.804688 19.855469 8.8125 19.851562 8.765625 19.640625 L 8.753906 19.578125 L 8.550781 19.582031 C 8.441406 19.582031 8.332031 19.589844 8.308594 19.601562 M 11.519531 19.707031 L 11.519531 19.835938 L 11.804688 19.835938 L 11.789062 19.722656 C 11.773438 19.589844 11.761719 19.578125 11.625 19.578125 L 11.519531 19.578125 L 11.519531 19.707031 M 7.226562 19.847656 C 7.160156 19.859375 7.121094 19.917969 7.109375 20.015625 L 7.09375 20.105469 L 7.371094 20.117188 C 7.6875 20.132812 7.675781 20.136719 7.683594 19.992188 C 7.683594 19.933594 7.695312 19.871094 7.707031 19.859375 C 7.722656 19.835938 7.339844 19.828125 7.226562 19.847656 M 12.316406 19.878906 C 12.324219 19.902344 12.335938 19.964844 12.339844 20.011719 C 12.34375 20.136719 12.34375 20.136719 12.648438 20.121094 L 12.925781 20.105469 L 12.914062 20.003906 C 12.898438 19.847656 12.871094 19.835938 12.558594 19.835938 L 12.300781 19.835938 L 12.316406 19.878906 M 5.15625 21.621094 L 5.15625 21.773438 L 5.136719 21.667969 C 5.125 21.605469 5.109375 21.542969 5.097656 21.523438 C 5.074219 21.476562 5.074219 21.46875 5.121094 21.46875 C 5.15625 21.46875 5.160156 21.480469 5.15625 21.621094 "/>
<path style=" stroke:none;fill-rule:evenodd;fill:rgb(32.941176%,42.352941%,36.078431%);fill-opacity:1;" d="M 12.78125 6.738281 C 12.902344 6.785156 13.445312 6.796875 13.472656 6.753906 C 13.476562 6.742188 13.367188 6.734375 13.226562 6.734375 C 13.085938 6.734375 12.914062 6.730469 12.851562 6.726562 C 12.753906 6.722656 12.742188 6.722656 12.78125 6.738281 M 13.539062 6.738281 C 13.472656 6.757812 13.546875 6.757812 13.628906 6.738281 C 13.683594 6.722656 13.683594 6.722656 13.640625 6.722656 C 13.613281 6.722656 13.566406 6.726562 13.539062 6.738281 M 13.792969 6.757812 C 13.871094 6.839844 13.890625 6.964844 13.851562 7.117188 C 13.832031 7.207031 13.820312 7.332031 13.820312 7.523438 L 13.820312 7.800781 L 13.761719 7.859375 C 13.730469 7.886719 13.6875 7.925781 13.664062 7.941406 C 13.578125 8.003906 13.539062 8.085938 13.539062 8.21875 C 13.539062 8.355469 13.515625 8.394531 13.394531 8.445312 C 13.332031 8.472656 13.253906 8.585938 13.273438 8.628906 C 13.363281 8.847656 13.371094 8.980469 13.292969 8.980469 C 13.265625 8.980469 13.113281 9.125 13.011719 9.242188 C 12.976562 9.28125 12.921875 9.328125 12.886719 9.347656 C 12.851562 9.363281 12.816406 9.402344 12.8125 9.425781 C 12.796875 9.476562 12.628906 9.632812 12.585938 9.632812 C 12.570312 9.632812 12.558594 9.640625 12.558594 9.65625 C 12.558594 9.699219 12.429688 9.847656 12.371094 9.871094 C 12.332031 9.886719 12.28125 9.9375 12.234375 10.011719 C 12.179688 10.089844 12.140625 10.128906 12.101562 10.136719 C 12.070312 10.144531 12.011719 10.195312 11.949219 10.265625 C 11.894531 10.328125 11.820312 10.394531 11.78125 10.410156 C 11.710938 10.441406 11.59375 10.542969 11.371094 10.765625 C 11.234375 10.90625 11.203125 10.921875 11.078125 10.941406 C 10.96875 10.957031 10.859375 11.046875 10.859375 11.117188 C 10.859375 11.207031 10.734375 11.445312 10.683594 11.445312 C 10.675781 11.445312 10.628906 11.484375 10.589844 11.539062 C 10.546875 11.589844 10.46875 11.675781 10.417969 11.730469 C 10.304688 11.847656 10.273438 11.992188 10.292969 12.300781 C 10.304688 12.460938 10.304688 12.460938 10.238281 12.535156 L 10.171875 12.609375 L 10.03125 12.601562 C 9.769531 12.582031 9.746094 12.546875 9.71875 12.183594 C 9.699219 11.863281 9.691406 11.832031 9.625 11.792969 C 9.5 11.722656 9.460938 11.65625 9.433594 11.488281 C 9.417969 11.398438 9.402344 11.324219 9.398438 11.320312 C 9.394531 11.316406 9.339844 11.273438 9.273438 11.226562 C 9.210938 11.179688 9.152344 11.121094 9.148438 11.097656 C 9.136719 11.050781 9.003906 10.933594 8.964844 10.933594 C 8.9375 10.933594 8.878906 10.863281 8.878906 10.832031 C 8.875 10.777344 8.746094 10.695312 8.617188 10.667969 C 8.503906 10.640625 8.476562 10.625 8.367188 10.515625 C 8.121094 10.269531 8.007812 10.167969 7.929688 10.128906 C 7.882812 10.105469 7.824219 10.050781 7.792969 10.007812 C 7.761719 9.964844 7.703125 9.902344 7.660156 9.871094 C 7.617188 9.839844 7.546875 9.769531 7.5 9.714844 C 7.457031 9.660156 7.394531 9.601562 7.363281 9.582031 C 7.335938 9.566406 7.289062 9.523438 7.261719 9.492188 C 7.195312 9.410156 7.144531 9.359375 7.042969 9.289062 C 7 9.253906 6.953125 9.203125 6.9375 9.171875 C 6.925781 9.140625 6.867188 9.078125 6.8125 9.035156 C 6.757812 8.992188 6.691406 8.921875 6.664062 8.882812 C 6.640625 8.839844 6.574219 8.777344 6.519531 8.738281 C 6.402344 8.65625 6.378906 8.609375 6.378906 8.453125 C 6.378906 8.339844 6.300781 8.214844 6.226562 8.214844 C 6.132812 8.214844 6.09375 8.035156 6.148438 7.878906 C 6.175781 7.808594 6.175781 7.78125 6.148438 7.65625 C 6.105469 7.449219 6.136719 7.160156 6.222656 7.046875 C 6.269531 6.984375 6.257812 6.976562 6.183594 7.03125 C 6.085938 7.097656 6.0625 7.339844 6.101562 7.800781 C 6.105469 7.816406 6.09375 7.886719 6.078125 7.953125 C 6.046875 8.101562 6.082031 8.195312 6.191406 8.25 C 6.324219 8.320312 6.332031 8.335938 6.335938 8.460938 C 6.34375 8.664062 6.371094 8.714844 6.511719 8.804688 C 6.605469 8.863281 6.640625 8.898438 6.640625 8.929688 C 6.640625 8.972656 6.6875 9.019531 6.820312 9.105469 C 6.855469 9.128906 6.894531 9.167969 6.898438 9.195312 C 6.914062 9.253906 7.035156 9.375 7.078125 9.375 C 7.121094 9.375 7.167969 9.425781 7.1875 9.484375 C 7.207031 9.542969 7.3125 9.632812 7.359375 9.632812 C 7.386719 9.632812 7.414062 9.65625 7.4375 9.691406 C 7.511719 9.828125 7.554688 9.875 7.617188 9.894531 C 7.667969 9.910156 7.699219 9.945312 7.746094 10.023438 C 7.792969 10.097656 7.828125 10.136719 7.871094 10.148438 C 7.941406 10.171875 8.050781 10.269531 8.09375 10.347656 C 8.109375 10.375 8.136719 10.398438 8.15625 10.398438 C 8.195312 10.398438 8.347656 10.546875 8.367188 10.601562 C 8.378906 10.640625 8.507812 10.699219 8.648438 10.734375 C 8.773438 10.761719 8.804688 10.785156 8.855469 10.882812 C 8.886719 10.945312 8.921875 10.972656 9 11.011719 C 9.085938 11.050781 9.105469 11.070312 9.125 11.132812 C 9.148438 11.207031 9.183594 11.238281 9.328125 11.320312 C 9.375 11.34375 9.394531 11.410156 9.398438 11.5625 C 9.398438 11.671875 9.5 11.816406 9.574219 11.816406 C 9.65625 11.816406 9.679688 11.894531 9.679688 12.1875 C 9.679688 12.585938 9.726562 12.648438 10.046875 12.644531 C 10.3125 12.640625 10.339844 12.605469 10.335938 12.199219 C 10.335938 11.890625 10.347656 11.851562 10.472656 11.761719 C 10.523438 11.726562 10.574219 11.667969 10.589844 11.632812 C 10.605469 11.597656 10.667969 11.539062 10.730469 11.492188 C 10.847656 11.410156 10.863281 11.378906 10.890625 11.171875 C 10.90625 11.050781 10.933594 11.03125 11.113281 10.996094 C 11.265625 10.964844 11.359375 10.921875 11.378906 10.863281 C 11.402344 10.808594 11.558594 10.65625 11.59375 10.65625 C 11.605469 10.65625 11.628906 10.636719 11.640625 10.613281 C 11.671875 10.558594 11.78125 10.460938 11.867188 10.421875 C 11.902344 10.402344 11.957031 10.351562 11.988281 10.300781 C 12.027344 10.246094 12.089844 10.195312 12.148438 10.164062 C 12.222656 10.125 12.253906 10.09375 12.289062 10.027344 C 12.320312 9.957031 12.351562 9.925781 12.414062 9.898438 C 12.503906 9.855469 12.558594 9.800781 12.558594 9.75 C 12.558594 9.710938 12.644531 9.632812 12.683594 9.632812 C 12.734375 9.632812 12.8125 9.558594 12.828125 9.5 C 12.84375 9.433594 12.894531 9.375 12.933594 9.375 C 12.972656 9.375 13.101562 9.257812 13.101562 9.222656 C 13.101562 9.175781 13.140625 9.136719 13.222656 9.09375 C 13.386719 9.007812 13.410156 8.957031 13.375 8.753906 L 13.351562 8.601562 L 13.414062 8.550781 C 13.445312 8.523438 13.507812 8.472656 13.546875 8.445312 C 13.621094 8.390625 13.621094 8.390625 13.621094 8.234375 C 13.621094 8.066406 13.632812 8.046875 13.832031 7.90625 L 13.890625 7.863281 L 13.902344 7.492188 C 13.910156 7.289062 13.921875 7.082031 13.929688 7.035156 C 13.949219 6.917969 13.898438 6.796875 13.816406 6.746094 L 13.75 6.710938 L 13.792969 6.757812 M 11.847656 6.777344 C 11.832031 6.832031 11.847656 6.84375 11.875 6.796875 C 11.890625 6.773438 11.890625 6.753906 11.882812 6.746094 C 11.871094 6.742188 11.855469 6.753906 11.847656 6.777344 M 11.820312 6.976562 C 11.820312 7.003906 11.804688 7.007812 11.746094 7 L 11.671875 6.992188 L 11.738281 7.011719 C 11.808594 7.035156 11.851562 7.015625 11.832031 6.96875 C 11.828125 6.953125 11.824219 6.953125 11.820312 6.976562 M 8.304688 7.007812 C 8.363281 7.015625 8.378906 7.054688 8.378906 7.183594 C 8.378906 7.304688 8.46875 7.390625 8.5625 7.367188 C 8.78125 7.304688 8.800781 7.289062 8.636719 7.300781 C 8.457031 7.316406 8.421875 7.300781 8.425781 7.203125 C 8.425781 7.042969 8.417969 6.984375 8.402344 7.007812 C 8.390625 7.027344 8.378906 7.03125 8.371094 7.015625 C 8.363281 7.003906 8.332031 6.992188 8.304688 6.996094 L 8.25 7 L 8.304688 7.007812 M 11.34375 7.027344 C 11.3125 7.054688 11.300781 7.085938 11.304688 7.144531 C 11.304688 7.316406 11.277344 7.332031 11.03125 7.277344 C 10.925781 7.253906 10.996094 7.296875 11.136719 7.339844 L 11.265625 7.382812 L 11.3125 7.335938 C 11.351562 7.296875 11.417969 6.992188 11.390625 6.992188 C 11.386719 6.992188 11.367188 7.007812 11.34375 7.027344 M 8.839844 7.289062 C 8.820312 7.300781 8.835938 7.304688 8.898438 7.296875 C 9.011719 7.277344 9.027344 7.269531 8.9375 7.269531 C 8.902344 7.269531 8.855469 7.277344 8.839844 7.289062 M 9.148438 7.308594 C 9.152344 7.335938 9.160156 7.398438 9.160156 7.449219 C 9.160156 7.601562 9.46875 7.683594 9.730469 7.597656 C 9.84375 7.558594 9.816406 7.554688 9.546875 7.558594 C 9.230469 7.566406 9.234375 7.566406 9.238281 7.402344 C 9.238281 7.335938 9.234375 7.285156 9.226562 7.292969 C 9.21875 7.300781 9.195312 7.296875 9.175781 7.285156 C 9.136719 7.265625 9.136719 7.269531 9.148438 7.308594 M 10.511719 7.296875 C 10.492188 7.3125 10.480469 7.359375 10.476562 7.4375 L 10.46875 7.554688 L 10.191406 7.5625 C 9.917969 7.574219 9.90625 7.578125 10.058594 7.617188 C 10.117188 7.632812 10.351562 7.621094 10.410156 7.601562 C 10.519531 7.566406 10.539062 7.558594 10.542969 7.546875 C 10.542969 7.539062 10.546875 7.5 10.550781 7.457031 C 10.554688 7.410156 10.558594 7.367188 10.558594 7.351562 C 10.558594 7.339844 10.574219 7.316406 10.589844 7.300781 C 10.628906 7.261719 10.5625 7.261719 10.511719 7.296875 M 9.765625 14.488281 C 9.660156 14.550781 9.636719 14.625 9.667969 14.777344 C 9.6875 14.878906 9.722656 14.890625 10.035156 14.890625 C 10.378906 14.890625 10.453125 14.824219 10.359375 14.589844 C 10.304688 14.4375 9.953125 14.378906 9.765625 14.488281 M 10.226562 14.527344 C 10.355469 14.578125 10.394531 14.769531 10.289062 14.84375 C 10.242188 14.878906 9.875 14.882812 9.785156 14.851562 C 9.632812 14.796875 9.648438 14.609375 9.808594 14.519531 C 9.867188 14.488281 10.140625 14.492188 10.226562 14.527344 M 9.675781 14.957031 C 9.632812 14.988281 9.597656 15.074219 9.601562 15.144531 C 9.601562 15.203125 9.613281 15.1875 9.628906 15.085938 C 9.648438 14.964844 9.714844 14.945312 10.054688 14.953125 C 10.210938 14.957031 10.339844 14.953125 10.339844 14.945312 C 10.339844 14.917969 9.714844 14.929688 9.675781 14.957031 M 9.601562 16.289062 C 9.601562 16.367188 9.605469 16.429688 9.613281 16.421875 C 9.628906 16.40625 9.621094 16.167969 9.609375 16.152344 C 9.605469 16.148438 9.601562 16.210938 9.601562 16.289062 M 9.652344 16.507812 C 9.660156 16.515625 9.71875 16.527344 9.773438 16.53125 C 9.914062 16.539062 9.917969 16.570312 9.78125 16.585938 L 9.671875 16.597656 L 9.78125 16.601562 C 9.90625 16.605469 9.976562 16.566406 9.90625 16.53125 C 9.855469 16.503906 9.628906 16.484375 9.652344 16.507812 M 9.605469 17.019531 C 9.605469 17.066406 9.609375 17.085938 9.613281 17.0625 C 9.617188 17.039062 9.617188 17 9.613281 16.972656 C 9.609375 16.949219 9.605469 16.96875 9.605469 17.019531 M 10.40625 17.34375 C 10.40625 17.527344 10.410156 17.605469 10.414062 17.515625 C 10.417969 17.425781 10.417969 17.277344 10.414062 17.183594 C 10.410156 17.085938 10.40625 17.160156 10.40625 17.34375 M 9.605469 17.285156 C 9.605469 17.371094 9.609375 17.402344 9.613281 17.355469 C 9.617188 17.3125 9.617188 17.238281 9.613281 17.199219 C 9.609375 17.160156 9.605469 17.199219 9.605469 17.285156 M 9.605469 17.617188 C 9.605469 17.714844 9.609375 17.757812 9.613281 17.714844 C 9.617188 17.667969 9.617188 17.585938 9.613281 17.535156 C 9.609375 17.484375 9.605469 17.519531 9.605469 17.617188 M 9.988281 17.886719 L 9.671875 17.894531 L 9.996094 17.898438 C 10.199219 17.902344 10.320312 17.898438 10.320312 17.886719 C 10.320312 17.875 10.316406 17.867188 10.316406 17.871094 C 10.3125 17.871094 10.164062 17.878906 9.988281 17.886719 M 9.660156 18.238281 C 9.660156 18.25 9.648438 18.253906 9.632812 18.25 C 9.617188 18.242188 9.605469 18.253906 9.605469 18.277344 C 9.601562 18.3125 9.605469 18.316406 9.632812 18.289062 C 9.664062 18.257812 9.675781 18.257812 10.027344 18.257812 C 10.351562 18.261719 10.378906 18.273438 10.378906 18.398438 C 10.378906 18.503906 10.414062 18.53125 10.550781 18.542969 C 10.644531 18.550781 10.664062 18.546875 10.628906 18.53125 C 10.609375 18.519531 10.550781 18.511719 10.503906 18.511719 C 10.410156 18.519531 10.40625 18.507812 10.394531 18.339844 C 10.390625 18.273438 10.382812 18.25 10.351562 18.242188 C 10.277344 18.222656 9.660156 18.222656 9.660156 18.238281 M 9.617188 18.96875 C 9.609375 19.03125 9.601562 19.039062 9.53125 19.050781 L 9.449219 19.0625 L 9.523438 19.0625 C 9.609375 19.066406 9.644531 19.03125 9.636719 18.953125 C 9.628906 18.902344 9.628906 18.902344 9.617188 18.96875 M 8.792969 19.730469 C 8.804688 19.863281 8.785156 19.878906 8.617188 19.855469 C 8.460938 19.832031 8.320312 19.832031 8.460938 19.855469 C 8.824219 19.914062 8.855469 19.902344 8.808594 19.726562 L 8.78125 19.628906 L 8.792969 19.730469 M 7.710938 19.867188 C 7.707031 19.882812 7.699219 19.945312 7.699219 20.003906 C 7.699219 20.128906 7.6875 20.140625 7.53125 20.136719 C 7.417969 20.132812 7.414062 20.132812 7.488281 20.152344 C 7.6875 20.191406 7.714844 20.171875 7.722656 19.984375 C 7.726562 19.890625 7.734375 19.867188 7.769531 19.855469 L 7.808594 19.835938 L 7.765625 19.835938 C 7.742188 19.835938 7.71875 19.847656 7.710938 19.867188 M 11.566406 19.847656 C 11.585938 19.851562 11.617188 19.851562 11.636719 19.847656 C 11.652344 19.84375 11.636719 19.839844 11.601562 19.839844 C 11.5625 19.839844 11.546875 19.84375 11.566406 19.847656 M 12.230469 19.851562 C 12.261719 19.871094 12.285156 19.933594 12.292969 20.03125 C 12.300781 20.128906 12.355469 20.191406 12.414062 20.175781 C 12.433594 20.171875 12.539062 20.15625 12.648438 20.140625 L 12.851562 20.113281 L 12.660156 20.125 C 12.554688 20.128906 12.445312 20.136719 12.417969 20.140625 C 12.347656 20.152344 12.316406 20.109375 12.316406 20.003906 C 12.316406 19.953125 12.308594 19.914062 12.300781 19.914062 C 12.289062 19.914062 12.285156 19.898438 12.289062 19.878906 C 12.292969 19.855469 12.28125 19.84375 12.253906 19.839844 C 12.230469 19.839844 12.21875 19.84375 12.230469 19.851562 M 13.117188 20.171875 C 13.105469 20.359375 13.152344 20.453125 13.265625 20.476562 C 13.34375 20.492188 13.359375 20.515625 13.359375 20.59375 C 13.359375 20.664062 13.40625 20.710938 13.527344 20.769531 C 13.589844 20.800781 13.613281 20.824219 13.621094 20.867188 C 13.636719 20.960938 13.625 20.984375 13.5 21.066406 C 13.433594 21.109375 13.375 21.164062 13.367188 21.183594 C 13.351562 21.234375 13.289062 21.3125 13.238281 21.347656 C 13.207031 21.367188 12.742188 21.371094 10.574219 21.371094 C 7.84375 21.371094 7.863281 21.371094 7.816406 21.457031 C 7.730469 21.613281 7.476562 21.667969 7.214844 21.589844 C 7.125 21.5625 7.070312 21.554688 7.046875 21.566406 C 6.914062 21.628906 6.820312 21.628906 6.738281 21.5625 L 6.65625 21.5 L 6.660156 21.351562 C 6.667969 21.164062 6.660156 21.152344 6.519531 21.0625 C 6.34375 20.953125 6.339844 20.796875 6.507812 20.742188 C 6.585938 20.714844 6.597656 20.695312 6.628906 20.554688 C 6.648438 20.460938 6.652344 20.457031 6.734375 20.4375 C 6.78125 20.425781 6.828125 20.40625 6.835938 20.394531 C 6.859375 20.371094 6.878906 20.1875 6.859375 20.1875 C 6.847656 20.1875 6.839844 20.234375 6.835938 20.292969 L 6.828125 20.394531 L 6.742188 20.402344 C 6.625 20.410156 6.578125 20.460938 6.578125 20.574219 C 6.578125 20.667969 6.546875 20.703125 6.4375 20.730469 C 6.277344 20.765625 6.320312 21.035156 6.5 21.113281 C 6.625 21.164062 6.628906 21.171875 6.621094 21.335938 C 6.613281 21.648438 6.632812 21.660156 7.242188 21.65625 C 7.746094 21.65625 7.773438 21.648438 7.828125 21.519531 C 7.84375 21.484375 7.867188 21.445312 7.882812 21.4375 C 7.898438 21.429688 9.117188 21.417969 10.589844 21.410156 C 13.441406 21.398438 13.355469 21.402344 13.363281 21.3125 C 13.363281 21.25 13.4375 21.164062 13.519531 21.121094 C 13.71875 21.019531 13.742188 20.769531 13.5625 20.734375 C 13.472656 20.71875 13.421875 20.667969 13.421875 20.609375 C 13.421875 20.496094 13.367188 20.425781 13.285156 20.425781 C 13.183594 20.425781 13.160156 20.398438 13.160156 20.273438 C 13.160156 20.1875 13.125 20.097656 13.117188 20.171875 "/>
<path style=" stroke:none;fill-rule:evenodd;fill:rgb(34.509804%,23.529412%,36.078431%);fill-opacity:1;" d="M 13.855469 6.773438 C 13.914062 6.828125 13.945312 6.941406 13.929688 7.039062 C 13.921875 7.082031 13.910156 7.289062 13.902344 7.492188 L 13.890625 7.863281 L 13.832031 7.90625 C 13.632812 8.046875 13.621094 8.066406 13.621094 8.234375 C 13.621094 8.390625 13.621094 8.390625 13.546875 8.445312 C 13.507812 8.472656 13.445312 8.523438 13.414062 8.550781 L 13.351562 8.601562 L 13.375 8.75 C 13.40625 8.9375 13.382812 9 13.273438 9.0625 C 13.1875 9.109375 13.1875 9.136719 13.277344 9.101562 C 13.417969 9.042969 13.460938 8.871094 13.390625 8.644531 C 13.378906 8.613281 13.441406 8.558594 13.550781 8.503906 C 13.636719 8.460938 13.679688 8.363281 13.679688 8.214844 C 13.679688 8.074219 13.730469 7.988281 13.820312 7.96875 C 13.933594 7.941406 13.96875 7.824219 13.953125 7.511719 C 13.945312 7.34375 13.949219 7.195312 13.960938 7.117188 C 13.996094 6.933594 13.929688 6.738281 13.835938 6.738281 C 13.824219 6.738281 13.832031 6.753906 13.855469 6.773438 M 6.128906 7.046875 C 6.0625 7.089844 6.035156 7.273438 6.042969 7.5625 C 6.050781 7.71875 6.050781 7.898438 6.042969 7.957031 C 6.019531 8.136719 6.09375 8.289062 6.207031 8.292969 C 6.273438 8.292969 6.296875 8.34375 6.316406 8.527344 C 6.328125 8.628906 6.34375 8.714844 6.355469 8.722656 C 6.363281 8.730469 6.378906 8.75 6.386719 8.769531 C 6.394531 8.789062 6.421875 8.808594 6.453125 8.816406 C 6.546875 8.839844 6.597656 8.882812 6.625 8.964844 C 6.644531 9.027344 6.664062 9.050781 6.75 9.09375 C 6.84375 9.136719 6.863281 9.15625 6.886719 9.230469 C 6.917969 9.320312 6.964844 9.375 7.019531 9.375 C 7.035156 9.375 7.015625 9.347656 6.976562 9.308594 C 6.941406 9.269531 6.90625 9.21875 6.898438 9.195312 C 6.894531 9.167969 6.855469 9.128906 6.820312 9.105469 C 6.6875 9.019531 6.640625 8.972656 6.640625 8.929688 C 6.640625 8.898438 6.605469 8.863281 6.511719 8.804688 C 6.371094 8.714844 6.34375 8.664062 6.335938 8.460938 C 6.332031 8.335938 6.324219 8.320312 6.191406 8.25 C 6.082031 8.195312 6.046875 8.101562 6.078125 7.953125 C 6.09375 7.886719 6.105469 7.816406 6.101562 7.800781 C 6.070312 7.417969 6.085938 7.136719 6.144531 7.054688 C 6.167969 7.027344 6.160156 7.023438 6.128906 7.046875 M 8.425781 7.210938 C 8.425781 7.261719 8.480469 7.34375 8.480469 7.292969 C 8.480469 7.28125 8.472656 7.265625 8.460938 7.257812 C 8.449219 7.253906 8.445312 7.226562 8.453125 7.199219 C 8.457031 7.171875 8.453125 7.148438 8.441406 7.148438 C 8.429688 7.148438 8.421875 7.175781 8.425781 7.210938 M 11.277344 7.230469 C 11.269531 7.273438 11.261719 7.277344 11.175781 7.277344 C 11.121094 7.277344 11.089844 7.28125 11.105469 7.292969 C 11.191406 7.347656 11.359375 7.261719 11.292969 7.195312 C 11.289062 7.191406 11.28125 7.207031 11.277344 7.230469 M 8.535156 7.300781 C 8.558594 7.304688 8.601562 7.304688 8.625 7.300781 C 8.648438 7.296875 8.628906 7.292969 8.578125 7.292969 C 8.53125 7.292969 8.511719 7.296875 8.535156 7.300781 M 9.246094 7.332031 C 9.234375 7.441406 9.238281 7.53125 9.253906 7.542969 C 9.261719 7.554688 9.269531 7.511719 9.269531 7.445312 C 9.269531 7.347656 9.25 7.261719 9.246094 7.332031 M 10.460938 7.449219 C 10.453125 7.511719 10.457031 7.554688 10.464844 7.546875 C 10.476562 7.535156 10.480469 7.488281 10.476562 7.433594 L 10.46875 7.335938 L 10.460938 7.449219 M 13.125 9.160156 C 13.109375 9.179688 13.101562 9.210938 13.101562 9.226562 C 13.101562 9.242188 13.066406 9.28125 13.03125 9.316406 C 12.972656 9.363281 12.964844 9.375 12.996094 9.375 C 13.042969 9.375 13.117188 9.292969 13.132812 9.21875 C 13.140625 9.191406 13.15625 9.15625 13.164062 9.144531 C 13.175781 9.128906 13.175781 9.121094 13.167969 9.121094 C 13.15625 9.121094 13.136719 9.136719 13.125 9.160156 M 7.113281 9.40625 C 7.136719 9.421875 7.164062 9.464844 7.171875 9.5 C 7.1875 9.570312 7.234375 9.632812 7.273438 9.632812 C 7.3125 9.632812 7.304688 9.613281 7.25 9.570312 C 7.222656 9.550781 7.195312 9.511719 7.1875 9.488281 C 7.171875 9.433594 7.121094 9.375 7.09375 9.375 C 7.082031 9.375 7.089844 9.390625 7.113281 9.40625 M 12.875 9.410156 C 12.855469 9.429688 12.835938 9.46875 12.828125 9.5 C 12.8125 9.558594 12.734375 9.632812 12.679688 9.632812 C 12.640625 9.632812 12.558594 9.710938 12.558594 9.746094 C 12.558594 9.796875 12.496094 9.867188 12.429688 9.886719 C 12.394531 9.898438 12.347656 9.929688 12.328125 9.953125 C 12.292969 9.992188 12.292969 9.996094 12.328125 9.96875 C 12.347656 9.953125 12.40625 9.925781 12.457031 9.90625 C 12.539062 9.878906 12.550781 9.867188 12.570312 9.792969 C 12.59375 9.695312 12.625 9.664062 12.730469 9.636719 C 12.804688 9.617188 12.816406 9.601562 12.839844 9.527344 C 12.855469 9.484375 12.878906 9.429688 12.898438 9.410156 C 12.914062 9.390625 12.921875 9.375 12.917969 9.375 C 12.910156 9.375 12.890625 9.390625 12.875 9.410156 M 7.339844 9.644531 C 7.394531 9.664062 7.441406 9.714844 7.441406 9.757812 C 7.441406 9.820312 7.492188 9.875 7.585938 9.910156 C 7.671875 9.945312 7.683594 9.953125 7.730469 10.070312 C 7.746094 10.109375 7.773438 10.144531 7.789062 10.144531 C 7.804688 10.144531 7.820312 10.152344 7.820312 10.160156 C 7.820312 10.171875 7.847656 10.1875 7.878906 10.191406 C 7.9375 10.207031 8 10.261719 8.039062 10.335938 C 8.050781 10.359375 8.089844 10.394531 8.125 10.414062 C 8.199219 10.449219 8.277344 10.527344 8.320312 10.609375 C 8.355469 10.675781 8.453125 10.726562 8.570312 10.746094 C 8.613281 10.75 8.679688 10.765625 8.714844 10.773438 C 8.75 10.785156 8.777344 10.785156 8.769531 10.773438 C 8.765625 10.765625 8.710938 10.746094 8.65625 10.734375 C 8.511719 10.699219 8.378906 10.640625 8.367188 10.601562 C 8.347656 10.546875 8.195312 10.398438 8.15625 10.398438 C 8.136719 10.398438 8.109375 10.375 8.09375 10.347656 C 8.050781 10.269531 7.941406 10.171875 7.871094 10.148438 C 7.828125 10.136719 7.792969 10.097656 7.746094 10.023438 C 7.699219 9.945312 7.667969 9.910156 7.617188 9.894531 C 7.554688 9.875 7.511719 9.828125 7.4375 9.691406 C 7.414062 9.652344 7.386719 9.632812 7.355469 9.632812 C 7.328125 9.632812 7.320312 9.640625 7.339844 9.644531 M 12.265625 10.074219 C 12.25 10.101562 12.199219 10.144531 12.148438 10.167969 C 12.085938 10.195312 12.03125 10.242188 11.988281 10.300781 C 11.957031 10.351562 11.902344 10.402344 11.867188 10.421875 C 11.78125 10.460938 11.671875 10.558594 11.640625 10.613281 C 11.628906 10.636719 11.605469 10.65625 11.59375 10.65625 C 11.558594 10.65625 11.402344 10.808594 11.378906 10.863281 C 11.359375 10.921875 11.265625 10.964844 11.113281 10.996094 C 10.933594 11.03125 10.90625 11.050781 10.890625 11.171875 C 10.863281 11.378906 10.847656 11.410156 10.730469 11.492188 C 10.667969 11.539062 10.605469 11.597656 10.589844 11.632812 C 10.574219 11.667969 10.523438 11.726562 10.472656 11.761719 C 10.347656 11.851562 10.335938 11.890625 10.335938 12.199219 C 10.339844 12.605469 10.3125 12.640625 10.046875 12.644531 C 9.726562 12.648438 9.679688 12.585938 9.679688 12.1875 C 9.679688 11.894531 9.65625 11.816406 9.574219 11.816406 C 9.492188 11.816406 9.40625 11.671875 9.394531 11.515625 C 9.386719 11.40625 9.371094 11.351562 9.347656 11.328125 C 9.316406 11.296875 9.316406 11.300781 9.335938 11.335938 C 9.347656 11.355469 9.367188 11.457031 9.375 11.558594 C 9.398438 11.765625 9.414062 11.785156 9.515625 11.820312 C 9.632812 11.855469 9.632812 11.855469 9.648438 12.167969 C 9.667969 12.621094 9.6875 12.648438 10.003906 12.671875 C 10.324219 12.699219 10.371094 12.636719 10.363281 12.222656 C 10.355469 11.890625 10.367188 11.855469 10.484375 11.796875 C 10.53125 11.773438 10.574219 11.730469 10.601562 11.679688 C 10.625 11.628906 10.679688 11.578125 10.75 11.535156 C 10.867188 11.460938 10.921875 11.351562 10.921875 11.1875 C 10.921875 11.070312 10.960938 11.039062 11.109375 11.027344 C 11.261719 11.011719 11.375 10.960938 11.417969 10.882812 C 11.460938 10.804688 11.535156 10.730469 11.613281 10.6875 C 11.648438 10.664062 11.6875 10.628906 11.699219 10.597656 C 11.726562 10.542969 11.765625 10.511719 11.886719 10.449219 C 11.949219 10.417969 11.984375 10.382812 12.015625 10.316406 C 12.050781 10.242188 12.074219 10.21875 12.121094 10.210938 C 12.152344 10.203125 12.1875 10.1875 12.203125 10.171875 C 12.214844 10.15625 12.238281 10.144531 12.253906 10.144531 C 12.265625 10.144531 12.285156 10.121094 12.292969 10.09375 C 12.308594 10.027344 12.292969 10.015625 12.265625 10.074219 M 8.808594 10.839844 C 8.828125 10.929688 8.898438 11.003906 8.984375 11.027344 C 9.03125 11.042969 9.070312 11.070312 9.078125 11.09375 C 9.089844 11.121094 9.109375 11.167969 9.121094 11.203125 C 9.136719 11.234375 9.167969 11.273438 9.195312 11.285156 C 9.277344 11.324219 9.292969 11.308594 9.21875 11.257812 C 9.171875 11.226562 9.140625 11.183594 9.125 11.132812 C 9.105469 11.070312 9.085938 11.050781 9 11.011719 C 8.917969 10.972656 8.886719 10.941406 8.847656 10.875 C 8.808594 10.804688 8.800781 10.796875 8.808594 10.839844 M 9.75 14.453125 C 9.667969 14.503906 9.597656 14.65625 9.640625 14.683594 C 9.652344 14.691406 9.660156 14.691406 9.65625 14.679688 C 9.585938 14.417969 10.261719 14.332031 10.359375 14.589844 C 10.390625 14.667969 10.382812 14.816406 10.347656 14.855469 C 10.316406 14.886719 10.316406 14.890625 10.347656 14.890625 C 10.367188 14.890625 10.378906 14.882812 10.371094 14.871094 C 10.363281 14.863281 10.367188 14.847656 10.378906 14.84375 C 10.460938 14.792969 10.371094 14.5 10.257812 14.445312 C 10.179688 14.402344 9.824219 14.410156 9.75 14.453125 M 9.648438 14.773438 C 9.65625 14.808594 9.667969 14.847656 9.679688 14.859375 C 9.695312 14.875 9.695312 14.859375 9.683594 14.820312 C 9.648438 14.714844 9.640625 14.703125 9.648438 14.773438 M 10.453125 18.507812 C 10.480469 18.515625 10.519531 18.515625 10.546875 18.507812 C 10.570312 18.503906 10.550781 18.5 10.5 18.5 C 10.449219 18.5 10.429688 18.503906 10.453125 18.507812 M 10.6875 19.253906 C 10.6875 19.285156 10.703125 19.3125 10.71875 19.316406 C 10.738281 19.324219 10.742188 19.320312 10.726562 19.308594 C 10.714844 19.300781 10.699219 19.269531 10.695312 19.242188 C 10.683594 19.203125 10.683594 19.203125 10.6875 19.253906 M 8.78125 19.792969 C 8.78125 19.816406 8.761719 19.84375 8.734375 19.855469 C 8.703125 19.867188 8.699219 19.871094 8.722656 19.871094 C 8.765625 19.875 8.804688 19.824219 8.792969 19.78125 C 8.785156 19.753906 8.785156 19.757812 8.78125 19.792969 M 7.683594 20.011719 C 7.679688 20.0625 7.667969 20.117188 7.65625 20.132812 C 7.640625 20.148438 7.644531 20.148438 7.667969 20.128906 C 7.695312 20.105469 7.699219 20.074219 7.695312 20.011719 L 7.6875 19.921875 L 7.683594 20.011719 M 12.320312 19.984375 C 12.308594 20.074219 12.339844 20.148438 12.386719 20.148438 C 12.398438 20.148438 12.394531 20.140625 12.375 20.125 C 12.355469 20.113281 12.339844 20.066406 12.335938 20.023438 C 12.332031 19.980469 12.324219 19.960938 12.320312 19.984375 M 13.164062 20.308594 C 13.160156 20.394531 13.1875 20.425781 13.269531 20.421875 C 13.328125 20.421875 13.328125 20.421875 13.261719 20.410156 C 13.195312 20.398438 13.1875 20.390625 13.179688 20.316406 L 13.164062 20.238281 L 13.164062 20.308594 M 13.382812 20.476562 C 13.402344 20.519531 13.421875 20.574219 13.421875 20.605469 C 13.421875 20.667969 13.472656 20.714844 13.5625 20.734375 C 13.726562 20.765625 13.71875 21.023438 13.550781 21.105469 L 13.488281 21.132812 L 13.542969 21.132812 C 13.75 21.136719 13.773438 20.738281 13.570312 20.707031 C 13.460938 20.691406 13.441406 20.671875 13.441406 20.574219 C 13.4375 20.492188 13.429688 20.472656 13.375 20.429688 C 13.347656 20.40625 13.347656 20.414062 13.382812 20.476562 M 6.558594 20.582031 C 6.550781 20.667969 6.546875 20.671875 6.453125 20.703125 C 6.332031 20.746094 6.339844 20.742188 6.320312 20.84375 C 6.292969 20.980469 6.382812 21.136719 6.484375 21.132812 C 6.523438 21.132812 6.523438 21.128906 6.464844 21.097656 C 6.300781 21.011719 6.296875 20.765625 6.460938 20.722656 C 6.558594 20.695312 6.585938 20.660156 6.574219 20.570312 L 6.566406 20.496094 L 6.558594 20.582031 M 6.566406 21.171875 C 6.589844 21.199219 6.601562 21.246094 6.601562 21.355469 C 6.601562 21.632812 6.683594 21.714844 6.941406 21.679688 C 7.011719 21.671875 7.113281 21.671875 7.171875 21.675781 C 7.324219 21.695312 7.6875 21.6875 7.707031 21.667969 C 7.71875 21.65625 7.742188 21.648438 7.761719 21.648438 C 7.785156 21.648438 7.8125 21.617188 7.832031 21.574219 C 7.90625 21.414062 7.609375 21.429688 10.566406 21.429688 C 13.511719 21.429688 13.339844 21.4375 13.394531 21.292969 C 13.410156 21.246094 13.441406 21.1875 13.457031 21.164062 C 13.488281 21.128906 13.488281 21.128906 13.457031 21.152344 C 13.417969 21.179688 13.359375 21.285156 13.359375 21.320312 C 13.359375 21.402344 13.40625 21.398438 10.589844 21.410156 C 9.117188 21.417969 7.898438 21.429688 7.882812 21.4375 C 7.867188 21.445312 7.84375 21.484375 7.828125 21.519531 C 7.773438 21.648438 7.746094 21.65625 7.242188 21.65625 C 6.632812 21.660156 6.613281 21.648438 6.621094 21.332031 C 6.625 21.199219 6.605469 21.136719 6.554688 21.136719 C 6.542969 21.136719 6.546875 21.152344 6.566406 21.171875 "/>
</g>
</svg>
