<svg viewBox="-106 0 512 512" xmlns="http://www.w3.org/2000/svg"><path d="m150 323c5.519531 0 10-4.480469 10-10s-4.480469-10-10-10-10 4.480469-10 10 4.480469 10 10 10zm0 0"/><path d="m204.683594 247.238281c23.203125-14.097656 42.410156-33.941406 55.550781-57.390625 12.929687-23.074218 19.765625-49.183594 19.765625-75.507812v-56.058594c11.640625-4.128906 20-15.246094 20-28.28125v-20c0-5.523438-4.476562-10-10-10h-280c-5.523438 0-10 4.476562-10 10v20c0 13.035156 8.359375 24.152344 20 28.28125v56.058594c0 26.324218 6.835938 52.433594 19.765625 75.507812 13.140625 23.449219 32.351563 43.296875 55.554687 57.390625 2.964844 1.800781 4.738282 5.078125 4.738282 8.761719 0 3.6875-1.773438 6.960938-4.738282 8.765625-23.203124 14.09375-42.414062 33.9375-55.554687 57.386719-12.929687 23.074218-19.765625 49.183594-19.765625 75.507812v56.058594c-11.640625 4.128906-20 15.246094-20 28.28125v20c0 5.523438 4.476562 10 10 10h280c5.523438 0 10-4.476562 10-10v-20c0-13.035156-8.359375-24.152344-20-28.28125v-56.058594c0-26.324218-6.835938-52.433594-19.765625-75.507812-13.140625-23.449219-32.351563-43.296875-55.554687-57.390625-2.964844-1.800781-4.738282-5.078125-4.738282-8.761719 0-3.6875 1.773438-6.960938 4.742188-8.761719zm-184.683594-227.238281h260v10c0 5.515625-4.484375 10-10 10h-240c-5.515625 0-10-4.484375-10-10zm260 472h-260v-10c0-5.515625 4.484375-10 10-10h240c5.515625 0 10 4.484375 10 10zm-85.699219-210.144531c41.136719 24.992187 65.699219 68.285156 65.699219 115.804687v54.339844h-220v-54.339844c0-47.519531 24.5625-90.8125 65.699219-115.804687 8.992187-5.457031 14.359375-15.125 14.359375-25.855469s-5.367188-20.398438-14.359375-25.855469c-41.136719-24.992187-65.699219-68.285156-65.699219-115.804687v-54.339844h220v54.339844c0 47.519531-24.5625 90.8125-65.699219 115.804687-8.992187 5.457031-14.359375 15.125-14.359375 25.855469s5.367188 20.398438 14.359375 25.855469zm0 0"/><path d="m157.96875 346.460938c-1.886719-2.515626-4.847656-4-7.992188-4 0 0-.003906 0-.007812 0-3.140625 0-6.101562 1.476562-7.988281 3.984374-3.769531 5.015626-8.464844 9.277344-13.953125 12.679688-11.453125 6.898438-21.683594 11.210938-30.714844 15.019531-20.023438 8.445313-37.3125 15.738281-37.3125 43.457031v4.398438c0 5.523438 4.476562 10 10 10h160c5.523438 0 10-4.476562 10-10v-4.398438c0-27.703124-17.332031-35.027343-37.398438-43.511718-9.105468-3.851563-19.425781-8.210938-31.023437-15.191406-5.316406-3.300782-9.894531-7.488282-13.609375-12.4375zm61.636719 65.539062h-139.214844c1.523437-9.242188 7.824219-12.3125 24.695313-19.425781 9.183593-3.875 20.609374-8.691407 33.316406-16.347657.03125-.023437.066406-.042968.097656-.0625 4.148438-2.566406 7.980469-5.5 11.460938-8.769531 3.394531 3.191407 7.113281 6.042969 11.132812 8.535157.035156.019531.070312.042968.105469.0625 12.84375 7.734374 24.359375 12.605468 33.613281 16.519531 16.941406 7.160156 23.265625 10.246093 24.792969 19.488281zm0 0"/><path d="m240 114.398438v-18.398438c0-3.636719-1.972656-6.984375-5.152344-8.746094-3.179687-1.765625-7.0625-1.660156-10.148437.265625-22.421875 14.015625-48.25 21.421875-74.699219 21.421875-26.445312 0-52.277344-7.40625-74.699219-21.421875-3.085937-1.925781-6.96875-2.027343-10.148437-.265625-3.179688 1.761719-5.152344 5.109375-5.152344 8.746094v18.398438c0 17.296874 6.679688 35.914062 19.3125 53.835937 12.242188 17.367187 29.222656 32.878906 49.109375 44.867187 4.039063 2.511719 7.996094 6.074219 11.578125 10.378907v49.519531c0 5.523438 4.476562 10 10 10 5.519531 0 10-4.476562 10-10v-49.5c3.648438-4.355469 7.738281-8 11.972656-10.625 40.691406-24.542969 68.027344-64.109375 68.027344-98.476562zm-78.402344 81.375c-.03125.023437-.066406.039062-.097656.0625-3.988281 2.464843-7.851562 5.515624-11.464844 9.023437-3.503906-3.429687-7.226562-6.371094-11.128906-8.789063-.035156-.023437-.070312-.042968-.105469-.066406-35.171875-21.183594-58.800781-53.976562-58.800781-81.605468v-1.472657c21.761719 10.515625 45.652344 16.015625 70 16.015625s48.238281-5.5 70-16.015625v1.472657c0 27.195312-24.015625 60.65625-58.402344 81.375zm0 0"/></svg>